<svg id="svg" version="1.1" xmlns="http://www.w3.org/2000/svg" xmlns:xlink="http://www.w3.org/1999/xlink" width="400" height="433.60433604336043" viewBox="0, 0, 400,433.60433604336043"><g id="svgg"><path id="path0" d="M0.000 216.800 L 0.000 433.600 200.000 433.600 L 400.000 433.600 400.000 216.800 L 400.000 0.000 200.000 0.000 L 0.000 0.000 0.000 216.800 M199.383 32.609 C 207.775 34.343,212.184 36.120,221.000 41.325 C 230.098 46.697,232.850 49.772,232.035 53.654 C 231.869 54.448,231.968 55.723,232.277 56.764 C 232.895 58.848,232.935 61.531,232.382 63.928 C 232.006 65.558,232.080 65.828,233.699 68.728 C 239.054 78.320,241.813 88.302,243.666 104.800 C 244.664 113.675,244.235 147.187,243.057 152.496 C 239.776 167.275,230.072 180.640,219.100 185.491 C 217.191 186.335,217.185 186.318,220.038 188.100 C 222.643 189.727,223.974 191.815,223.991 194.300 C 223.997 195.221,224.186 195.600,224.640 195.600 C 224.991 195.600,225.846 195.862,226.540 196.182 C 227.233 196.503,231.252 198.119,235.471 199.774 C 249.960 205.460,253.884 207.890,258.348 213.944 C 261.343 218.006,262.640 220.806,266.621 231.800 C 270.081 241.357,270.011 241.274,274.000 240.581 C 296.664 236.647,327.245 233.428,352.286 232.341 C 367.423 231.683,366.188 229.879,363.202 248.283 C 362.102 255.057,360.746 263.480,360.187 267.000 C 358.686 276.449,354.560 301.331,353.389 308.000 C 352.828 311.190,351.918 316.500,351.367 319.800 C 348.355 337.820,346.881 338.865,320.600 341.600 C 316.420 342.036,309.850 342.752,306.000 343.193 C 302.150 343.634,296.480 344.277,293.400 344.621 C 290.320 344.966,286.540 345.410,285.000 345.608 C 283.460 345.807,281.008 346.085,279.551 346.226 L 276.902 346.482 276.883 356.346 C 276.853 371.928,275.988 375.633,271.301 380.246 C 265.593 385.863,259.172 389.635,253.491 390.707 L 250.055 391.356 250.110 393.778 C 250.190 397.237,248.308 399.375,246.647 397.713 C 246.489 397.556,242.724 397.481,238.280 397.547 C 230.382 397.665,224.740 397.367,212.600 396.192 C 193.927 394.385,91.737 392.435,84.897 393.756 C 82.650 394.190,81.728 392.498,82.349 389.081 C 82.835 386.407,82.829 386.403,80.108 387.052 C 65.900 390.443,54.550 384.673,48.021 370.741 C 44.290 362.779,43.513 357.457,43.654 340.807 L 43.753 329.014 42.095 328.731 C 37.838 328.004,35.793 324.700,37.382 321.114 C 37.702 320.391,38.321 317.548,38.758 314.795 C 39.195 312.042,40.290 306.732,41.192 302.995 C 42.094 299.258,43.114 295.030,43.460 293.600 C 44.680 288.553,48.440 275.048,51.204 265.785 C 65.177 218.968,72.977 209.641,109.400 196.204 C 128.969 188.984,136.676 185.614,136.164 184.499 C 134.529 180.936,144.330 167.600,148.584 167.600 C 148.923 167.600,149.200 167.313,149.200 166.962 C 149.200 166.611,149.505 165.806,149.879 165.175 L 150.557 164.026 148.179 161.467 C 145.278 158.347,145.165 158.288,143.423 159.016 C 139.956 160.465,133.162 159.094,126.417 155.584 C 120.850 152.688,118.131 149.056,116.976 142.974 C 116.055 138.125,115.680 136.966,113.426 132.000 C 110.631 125.842,108.380 115.651,109.437 113.940 C 109.542 113.771,109.025 112.950,108.290 112.116 C 99.038 101.626,97.297 94.418,101.303 83.194 C 108.480 63.083,116.650 51.701,128.000 45.996 C 138.384 40.777,156.577 35.600,174.400 32.794 C 182.456 31.525,193.731 31.442,199.383 32.609 M125.834 121.145 C 125.045 122.421,141.751 127.468,152.400 129.171 C 154.050 129.435,156.452 129.832,157.739 130.053 C 160.098 130.459,161.477 130.243,159.347 129.801 C 158.716 129.670,157.210 129.302,156.000 128.982 C 154.790 128.663,151.460 127.791,148.600 127.044 C 145.740 126.298,139.890 124.653,135.600 123.389 C 126.247 120.633,126.163 120.613,125.834 121.145 M213.600 125.832 C 210.591 126.177,205.143 127.356,199.600 128.862 C 191.064 131.181,191.204 131.147,187.355 131.830 C 183.463 132.521,175.524 132.737,171.900 132.251 L 169.600 131.942 169.600 136.417 C 169.600 146.094,164.913 156.829,157.651 163.781 C 156.743 164.651,156.000 165.552,156.000 165.785 C 156.000 166.891,166.578 174.438,170.657 176.242 C 179.466 180.138,203.377 183.213,210.891 181.417 C 223.686 178.359,235.554 165.125,239.423 149.600 C 240.329 145.966,240.239 145.519,238.665 145.814 C 235.504 146.407,229.617 144.312,226.717 141.562 C 223.884 138.876,225.164 138.112,229.302 140.019 C 231.813 141.177,237.688 142.739,239.700 142.784 C 241.572 142.826,239.835 132.631,237.658 130.800 C 233.809 127.561,221.208 124.959,213.600 125.832 M200.320 141.280 C 204.055 145.015,190.594 149.748,181.600 147.861 C 178.038 147.114,178.129 145.600,181.737 145.600 C 185.959 145.600,190.244 144.580,194.200 142.633 C 197.922 140.801,199.494 140.454,200.320 141.280 M351.200 237.029 C 350.870 237.103,346.910 237.354,342.400 237.586 C 337.890 237.818,332.130 238.189,329.600 238.411 C 320.347 239.223,311.723 240.040,308.600 240.399 C 301.876 241.174,294.852 242.066,291.100 242.622 C 282.540 243.891,278.902 244.443,276.800 244.791 C 271.461 245.675,266.779 246.486,264.000 247.009 C 262.350 247.319,259.380 247.871,257.400 248.234 C 251.683 249.284,249.752 250.677,248.296 254.800 C 246.923 258.687,240.877 278.816,239.345 284.600 C 238.996 285.920,238.557 287.450,238.371 288.000 C 237.681 290.035,232.111 312.172,230.822 318.000 C 230.217 320.735,228.836 326.801,228.408 328.600 C 228.199 329.480,227.555 332.270,226.978 334.800 C 226.401 337.330,225.687 340.210,225.392 341.200 C 224.231 345.093,224.191 346.549,225.255 346.257 C 226.731 345.852,236.006 344.529,242.400 343.813 C 248.208 343.162,250.273 342.922,259.600 341.818 C 272.707 340.266,288.508 338.494,293.400 338.026 C 295.380 337.837,298.440 337.489,300.200 337.253 C 301.960 337.017,305.920 336.546,309.000 336.206 C 319.849 335.010,321.846 334.784,326.817 334.195 C 329.576 333.868,332.520 333.600,333.359 333.600 C 340.713 333.600,343.950 330.134,345.563 320.537 C 345.779 319.252,346.324 316.130,346.774 313.600 C 348.791 302.263,350.567 291.887,352.610 279.500 C 352.946 277.465,353.392 274.990,353.602 274.000 C 353.986 272.182,355.826 261.895,356.427 258.200 C 356.606 257.100,357.038 254.670,357.387 252.800 C 358.568 246.462,360.000 238.032,360.000 237.414 C 360.000 236.838,353.335 236.545,351.200 237.029 M306.141 275.300 C 307.597 276.631,309.930 280.263,310.402 281.937 C 310.687 282.945,311.318 283.747,312.434 284.515 C 313.325 285.129,314.305 286.233,314.613 286.969 C 314.965 287.813,315.823 288.689,316.931 289.339 C 322.019 292.320,319.241 299.174,312.104 301.247 C 308.822 302.200,298.993 301.990,296.979 300.923 C 292.001 298.286,291.173 294.719,294.756 291.344 C 296.050 290.126,296.309 289.644,296.136 288.778 C 295.863 287.417,296.837 285.523,298.280 284.608 C 301.458 282.590,303.200 279.909,303.200 277.036 C 303.200 275.747,303.398 275.125,303.900 274.832 C 304.885 274.258,305.034 274.289,306.141 275.300 M304.553 283.719 C 304.087 284.439,302.786 285.652,301.663 286.414 C 299.285 288.028,299.185 288.361,300.803 289.281 C 302.831 290.436,302.355 291.543,299.741 291.749 C 298.143 291.874,296.000 293.891,296.000 295.269 C 296.000 299.367,310.118 299.882,314.598 295.948 C 317.387 293.499,315.718 290.903,312.841 293.215 C 309.753 295.696,307.422 293.875,309.970 290.973 C 311.909 288.765,311.443 287.081,309.004 287.477 C 307.477 287.725,307.227 287.430,306.599 284.639 C 306.051 282.207,305.649 282.026,304.553 283.719 M219.200 331.994 C 219.200 337.388,214.605 338.167,206.372 334.170 C 200.212 331.179,197.686 330.958,193.936 333.083 C 192.691 333.789,190.658 334.709,189.417 335.127 C 186.490 336.115,186.565 336.379,190.077 337.435 C 191.685 337.918,195.893 339.404,199.429 340.738 C 214.522 346.430,221.550 347.442,222.074 344.000 C 222.435 341.627,223.592 332.324,223.596 331.754 C 223.600 331.320,220.658 330.000,219.687 330.000 C 219.370 330.000,219.200 330.695,219.200 331.994 " stroke="none" fill="#e6e6e6" fill-rule="evenodd"></path><path id="path1" d="M177.231 33.438 C 158.696 35.816,136.529 42.185,125.693 48.245 C 113.237 55.211,97.875 84.924,100.577 96.825 C 101.626 101.442,105.366 107.921,109.001 111.419 C 110.230 112.602,110.277 112.771,110.532 117.019 C 110.886 122.880,111.540 125.378,114.430 131.894 C 116.242 135.978,117.078 138.478,117.667 141.573 C 118.928 148.203,120.838 151.199,125.613 154.036 C 132.169 157.930,140.473 159.660,143.922 157.850 L 145.245 157.156 148.422 160.398 C 152.088 164.139,151.867 163.557,150.622 166.190 C 149.779 167.973,149.407 168.334,147.922 168.815 C 143.376 170.288,134.685 183.275,137.622 184.207 C 140.021 184.968,131.573 189.069,115.400 194.994 C 78.297 208.586,70.202 215.608,59.601 243.400 C 53.312 259.886,41.772 301.275,39.804 314.400 C 39.458 316.710,38.910 319.434,38.587 320.454 C 37.137 325.031,38.368 327.158,42.914 327.934 L 44.566 328.216 44.599 342.008 C 44.641 359.529,45.590 364.847,50.072 372.681 C 56.863 384.549,66.458 389.003,79.200 386.200 C 83.863 385.174,83.754 385.113,83.439 388.596 C 83.056 392.826,84.250 394.621,85.838 392.199 C 86.367 391.391,86.442 390.637,86.225 388.299 C 85.886 384.644,86.059 384.415,90.400 382.767 C 93.542 381.575,110.204 373.310,122.000 367.093 C 150.887 351.870,164.753 344.800,165.726 344.800 C 167.162 344.800,168.204 344.248,170.200 342.428 C 171.080 341.625,173.436 340.131,175.435 339.106 L 179.070 337.243 185.035 339.569 C 191.177 341.965,194.612 343.402,199.302 345.538 C 205.912 348.548,214.913 350.919,219.600 350.884 C 221.030 350.873,223.303 350.861,224.650 350.856 C 225.998 350.851,230.408 350.537,234.450 350.158 C 244.962 349.173,243.814 348.969,243.724 351.800 C 243.005 374.555,243.065 376.924,244.649 388.200 C 245.678 395.529,246.815 397.954,248.608 396.644 C 249.223 396.194,249.291 395.735,249.079 393.465 C 248.798 390.458,249.149 390.000,251.732 390.000 C 258.098 390.000,270.884 381.461,273.913 375.186 C 275.405 372.094,275.695 369.441,275.835 357.636 C 275.908 351.385,276.115 346.125,276.293 345.947 C 276.649 345.591,279.642 345.157,288.200 344.218 C 291.280 343.880,296.950 343.243,300.800 342.802 C 304.650 342.362,311.130 341.641,315.200 341.201 C 347.572 337.697,347.211 337.919,350.397 319.600 C 352.894 305.248,355.274 291.331,355.597 289.200 C 356.080 286.009,357.518 277.146,358.193 273.200 C 358.998 268.494,359.814 263.348,361.647 251.400 C 361.883 249.860,362.320 247.250,362.618 245.600 C 364.565 234.821,364.647 233.251,363.273 233.151 C 358.175 232.776,328.082 234.571,315.600 235.993 C 313.730 236.206,309.680 236.663,306.600 237.009 C 299.863 237.765,287.567 239.399,282.600 240.198 C 270.357 242.168,270.824 242.118,270.126 241.545 C 269.139 240.735,266.717 235.309,264.615 229.200 C 260.296 216.650,255.473 210.129,247.400 205.926 C 244.206 204.263,227.655 197.600,226.718 197.600 C 225.279 197.600,228.105 199.410,237.093 204.244 C 252.096 212.314,254.692 215.325,261.236 232.247 C 262.587 235.741,264.025 239.439,264.431 240.464 C 265.404 242.919,265.309 242.983,258.804 244.229 C 250.799 245.763,248.556 246.865,246.345 250.351 C 243.476 254.876,231.902 294.872,227.197 316.525 C 226.585 319.344,225.977 321.757,225.846 321.888 C 225.338 322.395,222.085 320.499,219.738 318.328 C 216.177 315.036,215.164 314.842,208.609 316.197 C 205.744 316.789,202.605 317.437,201.633 317.637 C 197.149 318.560,200.631 319.031,206.106 318.242 C 208.578 317.886,211.730 317.596,213.110 317.597 L 215.620 317.600 218.211 320.010 C 221.157 322.750,222.413 323.362,224.354 322.997 L 225.717 322.742 225.464 324.587 C 225.027 327.771,224.650 328.150,222.259 327.804 C 221.126 327.640,219.508 327.533,218.662 327.565 C 217.422 327.613,216.826 327.355,215.580 326.230 C 211.743 322.763,198.964 319.161,196.656 320.895 C 195.487 321.773,196.731 322.691,199.500 322.995 C 209.423 324.083,216.400 327.664,216.400 331.668 C 216.400 334.428,213.838 334.522,208.710 331.950 C 200.259 327.713,198.317 327.640,191.194 331.285 C 186.361 333.758,186.226 333.800,183.040 333.803 L 179.800 333.806 173.088 337.332 C 165.716 341.206,165.029 341.339,163.100 339.281 C 160.096 336.074,156.981 324.338,157.967 319.947 C 158.532 317.432,159.070 317.160,167.648 315.047 C 177.909 312.521,179.999 311.814,181.027 310.525 C 181.491 309.944,182.574 309.245,183.435 308.974 C 211.853 300.013,212.970 299.752,215.399 301.500 C 216.240 302.105,218.473 304.058,220.364 305.839 C 224.068 309.331,224.902 309.841,225.578 309.027 C 226.304 308.152,225.671 307.322,221.855 304.145 C 219.845 302.471,217.801 300.608,217.313 300.005 C 215.995 298.374,214.368 297.850,211.466 298.121 C 207.949 298.449,188.194 305.074,181.469 308.181 C 179.819 308.943,177.329 309.839,175.935 310.171 C 174.541 310.504,171.510 311.315,169.200 311.974 L 165.000 313.173 163.916 312.386 C 161.883 310.911,158.590 311.698,156.546 314.148 C 155.113 315.865,155.616 315.675,145.376 318.371 C 140.329 319.700,135.210 321.064,134.000 321.401 C 132.790 321.739,125.770 323.652,118.400 325.654 C 111.030 327.655,104.100 329.539,103.000 329.841 C 98.994 330.941,99.166 331.603,100.762 321.200 C 103.902 300.732,103.275 274.376,99.881 284.178 C 99.139 286.321,98.674 286.342,97.268 284.299 C 94.367 280.082,93.834 280.810,95.972 286.073 C 98.387 292.021,98.393 292.228,96.602 306.600 C 95.803 313.011,94.818 325.112,94.808 328.651 C 94.797 332.413,93.147 333.784,92.204 330.813 C 91.578 328.839,77.388 324.572,63.000 322.031 C 59.040 321.332,53.190 320.304,50.000 319.748 C 42.819 318.495,43.270 319.154,44.938 312.345 C 45.713 309.185,46.921 304.170,47.624 301.200 C 49.992 291.186,54.891 273.257,58.062 263.000 C 70.968 221.246,77.589 213.551,112.000 200.317 C 117.170 198.328,122.210 196.336,123.200 195.889 C 130.308 192.678,134.387 190.591,136.662 189.001 C 138.111 187.988,139.575 187.214,139.916 187.280 C 141.703 187.626,150.434 200.833,154.671 209.600 C 156.532 213.450,158.852 218.220,159.828 220.200 C 163.157 226.958,166.265 229.334,167.919 226.385 C 170.997 220.896,183.613 204.913,184.456 205.434 C 185.061 205.809,184.609 210.542,183.747 212.842 C 181.940 217.664,182.918 221.806,186.687 225.299 C 194.397 232.444,196.735 236.043,197.646 242.166 C 198.176 245.726,198.505 246.369,199.489 245.759 C 201.826 244.309,199.640 235.182,195.798 230.349 C 194.183 228.317,194.146 228.128,195.158 227.026 C 195.575 226.572,196.508 224.765,197.232 223.011 C 198.393 220.199,199.019 219.345,202.514 215.811 C 206.890 211.383,208.675 208.584,211.066 202.400 C 211.874 200.310,212.865 198.171,213.267 197.646 C 214.253 196.363,214.205 195.815,212.739 191.548 C 211.377 187.582,211.728 185.897,213.624 187.301 C 219.414 191.588,220.001 192.305,219.998 195.086 C 219.991 200.355,218.621 203.312,213.267 209.611 C 210.926 212.366,210.543 213.140,209.913 216.400 C 209.329 219.420,209.102 219.552,207.042 218.073 C 204.316 216.116,203.258 216.393,201.198 219.603 C 199.594 222.103,199.764 222.386,201.790 220.584 C 203.742 218.848,204.035 218.857,206.109 220.718 C 211.955 225.966,212.798 225.859,212.802 219.867 C 212.805 215.805,213.276 214.060,214.916 212.035 C 215.622 211.163,216.920 209.513,217.800 208.369 C 218.680 207.224,220.086 205.590,220.925 204.736 C 222.384 203.252,222.467 203.022,222.865 199.359 C 223.589 192.699,222.683 190.506,218.189 188.033 C 215.558 186.585,215.664 186.171,219.140 184.352 C 233.901 176.625,242.769 160.895,242.790 142.400 C 242.794 138.770,243.005 132.965,243.258 129.500 C 244.859 107.558,240.256 81.403,232.565 68.742 L 231.086 66.307 231.595 63.034 C 232.043 60.150,232.023 59.485,231.426 57.429 C 230.991 55.935,230.841 54.542,231.007 53.556 C 231.639 49.819,229.566 47.592,220.348 42.103 C 206.032 33.580,194.376 31.237,177.231 33.438 M200.717 38.042 C 206.222 39.230,209.473 40.394,215.726 43.415 C 222.738 46.803,222.688 47.102,215.400 45.374 C 202.233 42.251,175.396 47.077,162.434 54.898 C 149.874 62.477,138.671 85.937,135.957 110.342 C 135.517 114.300,135.346 114.928,134.626 115.220 C 131.051 116.672,126.800 119.046,126.800 119.591 C 126.800 119.957,128.625 120.538,139.800 123.727 C 149.542 126.508,163.630 130.000,165.106 130.000 C 165.513 130.000,166.196 130.258,166.624 130.573 C 171.311 134.033,146.385 129.770,129.488 124.222 C 125.018 122.754,125.075 122.735,124.239 125.956 C 121.204 137.660,127.938 148.998,138.485 149.940 C 141.258 150.187,141.400 150.249,141.400 151.200 C 141.400 153.111,136.793 152.522,130.715 149.834 C 126.038 147.765,124.498 145.578,123.194 139.151 C 122.546 135.957,121.907 134.170,120.423 131.400 C 114.799 120.904,113.757 115.483,114.500 100.570 C 115.214 86.228,113.672 87.623,110.931 103.800 C 109.876 110.028,104.991 100.460,105.010 92.200 L 105.020 87.800 107.356 82.000 C 114.746 63.655,121.168 55.182,131.640 49.956 C 140.135 45.717,165.484 39.058,178.600 37.620 C 180.800 37.379,183.230 37.111,184.000 37.026 C 187.372 36.652,196.979 37.236,200.717 38.042 M167.420 42.768 C 167.121 43.251,169.831 45.471,171.113 45.793 C 172.283 46.086,173.012 45.529,172.659 44.610 C 172.189 43.385,167.958 41.897,167.420 42.768 M153.820 47.168 C 153.303 48.004,158.003 51.600,159.613 51.600 C 160.704 51.600,161.333 50.595,160.829 49.655 C 160.179 48.439,154.319 46.360,153.820 47.168 M140.270 56.263 C 139.986 56.547,140.710 57.600,141.190 57.600 C 141.351 57.600,143.290 58.591,145.500 59.803 C 149.665 62.087,150.800 62.255,150.800 60.590 C 150.800 58.876,141.485 55.048,140.270 56.263 M222.200 65.829 C 223.740 66.176,225.410 66.541,225.912 66.641 C 229.122 67.276,234.849 82.048,237.187 95.724 C 238.697 104.557,239.912 126.713,238.920 127.326 C 238.699 127.462,237.096 126.852,235.359 125.969 C 230.712 123.607,214.859 121.124,212.419 122.376 C 212.078 122.551,210.540 122.924,209.000 123.206 C 207.460 123.488,202.870 124.687,198.800 125.870 C 181.775 130.821,173.929 130.731,153.200 125.347 C 145.729 123.407,146.078 123.756,148.830 120.969 C 151.319 118.449,151.518 117.429,150.804 110.837 C 149.817 101.726,151.308 97.027,156.972 91.393 C 161.113 87.274,161.201 87.139,165.018 79.019 C 169.481 69.524,175.811 67.510,206.000 65.980 C 211.170 65.719,215.475 65.436,215.567 65.352 C 215.967 64.986,219.630 65.250,222.200 65.829 M130.986 67.222 C 130.480 68.041,138.173 73.711,140.475 74.216 C 142.067 74.566,143.296 73.447,142.781 72.118 C 142.178 70.562,131.628 66.183,130.986 67.222 M123.035 79.714 C 121.850 80.598,122.394 81.219,126.711 83.905 C 130.975 86.559,132.116 86.878,132.798 85.604 C 134.297 82.803,125.782 77.667,123.035 79.714 M215.600 95.078 C 213.997 95.651,213.464 98.257,214.615 99.900 C 215.585 101.284,218.062 101.737,224.800 101.760 C 236.197 101.799,236.079 100.756,224.303 97.391 C 221.719 96.653,219.204 95.768,218.714 95.425 C 217.820 94.799,216.723 94.676,215.600 95.078 M194.200 97.436 C 192.440 97.957,187.790 99.226,183.866 100.255 C 173.067 103.088,172.059 104.658,181.125 104.526 C 196.451 104.304,204.566 101.330,200.618 97.382 C 199.414 96.178,198.419 96.186,194.200 97.436 M222.894 107.786 C 216.816 108.608,215.657 111.035,220.700 112.378 C 222.059 112.740,222.400 113.010,222.400 113.726 C 222.400 116.897,226.189 117.561,227.423 114.606 C 227.981 113.272,228.110 113.200,229.951 113.200 C 232.508 113.200,234.000 112.094,234.000 110.200 C 234.000 107.243,231.279 106.652,222.894 107.786 M187.400 109.652 C 178.800 110.473,174.000 111.727,174.000 113.153 C 174.000 114.213,175.008 114.495,179.796 114.770 C 183.758 114.998,183.797 115.010,184.349 116.200 C 186.021 119.801,188.674 119.725,190.589 116.021 C 191.180 114.878,191.366 114.799,193.510 114.790 C 198.138 114.771,200.000 113.840,200.000 111.546 C 200.000 109.195,196.965 108.739,187.400 109.652 M140.921 119.627 C 142.618 120.098,145.176 122.158,144.680 122.653 C 144.367 122.966,137.681 121.430,136.300 120.728 C 134.075 119.596,137.701 118.733,140.921 119.627 M225.330 125.399 C 238.574 127.933,241.030 130.509,240.966 141.800 C 240.840 164.311,221.229 184.740,201.600 182.808 C 175.439 180.232,170.548 178.703,158.637 169.371 C 154.514 166.142,154.423 165.730,157.227 162.985 C 164.734 155.634,168.998 145.559,168.730 135.805 C 168.587 130.601,168.171 130.915,174.363 131.556 C 178.324 131.966,188.422 131.328,189.612 130.593 C 189.796 130.479,190.724 130.231,191.673 130.043 C 192.623 129.854,194.840 129.304,196.600 128.821 C 211.333 124.774,217.947 123.986,225.330 125.399 M131.363 126.786 C 131.933 127.003,132.487 127.609,132.628 128.169 C 132.977 129.559,133.558 129.938,136.040 130.396 C 138.678 130.883,143.860 133.403,146.708 135.585 C 149.107 137.422,149.411 137.501,149.986 136.426 C 150.617 135.246,150.516 134.930,148.944 133.191 C 146.938 130.971,147.257 130.896,153.510 132.123 C 156.530 132.715,160.637 133.441,162.637 133.737 C 167.859 134.509,168.047 135.078,165.745 143.114 C 163.738 150.120,156.852 161.200,154.506 161.200 C 153.246 161.200,146.930 152.886,143.884 147.219 L 142.768 145.142 139.284 145.404 C 132.363 145.925,127.995 140.803,128.002 132.174 C 128.006 126.987,128.751 125.793,131.363 126.786 M227.200 140.392 C 227.200 142.868,238.630 146.750,239.471 144.560 C 239.779 143.756,238.957 143.216,237.400 143.199 C 235.648 143.180,230.865 141.861,228.900 140.855 C 227.965 140.376,227.200 140.167,227.200 140.392 M194.879 143.261 C 191.303 145.016,186.699 146.382,184.324 146.393 C 182.145 146.403,182.095 147.105,184.249 147.428 C 190.732 148.400,201.908 144.468,199.501 142.061 C 198.830 141.390,198.536 141.466,194.879 143.261 M153.639 172.007 C 155.841 174.459,156.193 175.202,155.296 175.501 C 154.491 175.770,149.823 171.038,150.123 170.257 C 150.563 169.109,151.420 169.535,153.639 172.007 M150.623 174.300 C 156.652 182.450,162.812 187.657,177.433 196.964 C 184.478 201.449,184.615 201.854,180.534 206.122 C 176.999 209.819,172.658 214.923,168.646 220.100 C 167.154 222.025,165.777 223.600,165.586 223.600 C 164.865 223.600,162.699 219.832,158.889 211.944 C 153.720 201.245,150.682 196.709,142.920 188.101 C 138.738 183.463,138.822 183.810,140.983 180.065 C 141.702 178.819,142.777 176.938,143.371 175.884 C 146.459 170.413,147.567 170.170,150.623 174.300 M162.006 179.003 C 170.657 184.259,187.717 187.896,204.523 188.069 C 207.734 188.102,207.936 188.306,208.968 192.555 C 209.336 194.071,209.908 195.835,210.239 196.475 C 211.013 197.973,210.896 198.296,207.332 204.440 C 204.745 208.900,203.850 210.049,200.603 213.092 C 196.253 217.166,194.227 219.995,193.318 223.264 C 192.522 226.130,192.402 226.133,189.309 223.374 C 185.504 219.980,185.437 219.502,187.606 211.237 C 189.706 203.236,187.078 198.830,176.305 192.293 C 167.946 187.221,157.882 179.162,158.552 178.077 C 159.003 177.348,159.501 177.482,162.006 179.003 M178.800 224.622 C 178.800 226.803,181.553 229.735,184.381 230.565 C 185.580 230.917,187.066 231.688,187.683 232.280 C 188.571 233.130,188.908 233.252,189.297 232.863 C 190.167 231.993,188.829 230.313,186.590 229.465 C 182.437 227.893,181.340 227.254,180.383 225.848 C 179.503 224.556,178.800 224.012,178.800 224.622 M106.008 225.851 C 106.020 227.004,107.556 236.914,108.603 242.600 C 108.927 244.360,109.641 248.770,110.189 252.400 C 110.737 256.030,111.470 260.800,111.817 263.000 C 112.165 265.200,112.622 268.156,112.833 269.569 C 113.280 272.566,113.807 273.458,114.693 272.723 C 115.613 271.959,114.697 258.248,113.175 250.000 C 110.818 237.231,105.954 220.841,106.008 225.851 M125.602 234.700 C 125.609 245.324,126.410 260.182,127.010 260.781 C 130.876 264.648,130.565 241.228,126.625 231.798 C 125.733 229.664,125.600 230.043,125.602 234.700 M360.758 236.549 C 361.009 236.851,361.124 237.346,361.015 237.649 C 360.905 237.952,360.264 241.350,359.589 245.200 C 357.471 257.289,355.767 266.854,354.601 273.200 C 354.257 275.070,353.616 278.760,353.176 281.400 C 352.736 284.040,352.115 287.730,351.796 289.600 C 351.477 291.470,350.746 295.790,350.173 299.200 C 344.143 335.090,345.272 333.252,328.200 334.984 C 319.961 335.820,309.081 337.026,299.400 338.175 C 296.540 338.515,291.680 339.063,288.600 339.393 C 285.520 339.723,280.570 340.274,277.600 340.617 C 274.630 340.961,270.760 341.406,269.000 341.605 C 267.240 341.805,261.030 342.521,255.200 343.196 C 249.370 343.871,242.980 344.597,241.000 344.809 C 235.869 345.359,231.930 345.915,227.843 346.667 C 225.054 347.180,224.122 347.219,223.527 346.847 C 223.109 346.586,222.551 346.507,222.287 346.670 C 220.128 348.004,210.630 345.904,199.436 341.616 C 193.633 339.394,188.038 337.568,185.300 337.004 C 182.851 336.500,184.745 334.811,187.769 334.802 C 188.192 334.801,190.262 333.947,192.369 332.903 C 197.754 330.238,200.405 330.205,205.262 332.746 C 214.360 337.506,218.865 336.962,218.261 331.176 C 217.976 328.451,218.118 328.365,221.163 329.426 C 224.719 330.664,224.885 331.046,224.025 336.027 C 223.333 340.035,223.079 344.239,223.556 343.783 C 223.937 343.420,226.649 333.209,227.585 328.615 C 229.353 319.938,233.280 303.722,236.937 290.000 C 239.027 282.157,242.686 269.743,246.025 259.165 C 248.810 250.343,250.170 248.742,255.800 247.661 C 265.258 245.844,273.336 244.444,281.600 243.188 C 283.030 242.970,285.820 242.536,287.800 242.222 C 310.581 238.614,359.326 234.824,360.758 236.549 M303.998 276.872 C 303.992 280.255,302.560 282.496,298.402 285.628 C 297.203 286.532,297.035 286.880,297.019 288.497 C 297.002 290.134,296.815 290.509,295.330 291.880 C 287.562 299.052,306.170 305.124,315.702 298.528 C 319.697 295.763,319.901 291.947,316.169 289.760 C 314.930 289.034,314.167 288.235,313.770 287.248 C 313.403 286.334,312.636 285.483,311.694 284.942 C 310.556 284.288,310.037 283.619,309.516 282.133 C 307.877 277.460,304.003 273.767,303.998 276.872 M306.906 282.427 C 308.087 287.158,307.903 286.854,309.424 286.569 C 312.181 286.052,312.972 288.693,310.816 291.215 C 308.664 293.733,309.999 294.630,312.556 292.385 C 314.766 290.445,317.811 291.942,316.841 294.492 C 314.492 300.670,295.200 301.328,295.200 295.230 C 295.200 293.769,297.984 290.800,299.354 290.800 C 300.596 290.800,300.720 290.199,299.600 289.600 C 298.135 288.816,298.601 287.411,300.793 286.004 C 301.890 285.301,303.441 283.834,304.240 282.745 C 305.880 280.512,306.412 280.449,306.906 282.427 M211.800 306.702 C 208.586 306.934,200.104 308.394,196.448 309.344 C 190.365 310.926,190.911 312.287,197.132 311.049 C 210.949 308.298,215.394 308.519,220.841 312.228 C 227.167 316.536,228.867 314.657,222.654 310.224 C 218.495 307.256,215.881 306.408,211.800 306.702 M153.865 322.405 C 154.031 330.977,155.842 337.596,159.161 341.757 C 160.709 343.697,160.625 343.812,155.863 346.234 C 153.848 347.260,149.860 349.315,147.000 350.802 C 144.140 352.289,136.130 356.432,129.200 360.008 C 122.270 363.585,114.710 367.502,112.400 368.712 C 75.894 387.833,65.843 389.116,55.455 375.978 C 48.446 367.115,46.046 356.508,46.003 334.200 C 45.995 330.240,45.882 326.600,45.751 326.110 L 45.512 325.220 44.814 326.082 C 43.979 327.113,42.353 326.655,40.740 324.934 L 39.800 323.932 40.751 323.161 C 42.091 322.074,43.483 321.813,44.729 322.417 C 45.318 322.702,46.100 322.896,46.467 322.848 C 46.834 322.800,48.191 323.035,49.484 323.370 C 50.776 323.705,53.716 324.349,56.017 324.802 C 67.673 327.096,87.030 332.710,86.700 333.700 C 86.617 333.948,86.111 334.282,85.575 334.444 C 77.835 336.775,71.600 339.302,71.600 340.106 C 71.600 340.315,71.915 340.364,72.300 340.215 C 75.059 339.150,80.988 337.378,85.200 336.359 C 93.698 334.305,111.915 329.746,117.800 328.202 C 125.152 326.273,146.686 320.516,150.000 319.594 C 153.860 318.520,153.790 318.469,153.865 322.405 M273.292 346.877 C 273.380 347.140,273.026 349.075,272.505 351.177 C 270.976 357.354,270.457 359.979,269.621 365.756 C 268.703 372.097,268.223 373.281,265.290 376.449 C 258.935 383.314,249.785 387.335,248.020 384.038 C 246.652 381.481,245.456 350.784,246.678 349.562 C 247.624 348.616,273.018 346.054,273.292 346.877 M173.922 350.700 C 167.587 359.256,155.600 378.245,155.600 379.726 C 155.600 383.494,161.319 376.866,168.562 364.703 C 171.577 359.640,176.800 349.561,176.800 348.806 C 176.800 347.741,175.460 348.623,173.922 350.700 " stroke="none" fill="#12100e" fill-rule="evenodd"></path><path id="path2" d="M178.000 32.908 C 176.130 33.148,174.929 33.417,175.330 33.507 C 175.732 33.597,177.515 33.474,179.294 33.235 C 194.283 31.218,206.496 33.856,220.348 42.103 C 229.566 47.592,231.639 49.819,231.007 53.556 C 230.841 54.542,230.991 55.935,231.426 57.429 C 232.023 59.485,232.043 60.150,231.595 63.034 L 231.086 66.307 232.565 68.742 C 237.262 76.475,239.835 84.830,242.005 99.400 C 242.398 102.040,242.737 103.570,242.758 102.800 C 242.853 99.307,239.440 82.825,237.705 78.400 C 236.450 75.200,233.384 69.001,232.293 67.457 C 231.533 66.382,231.514 66.120,231.979 63.057 C 232.369 60.487,232.371 59.420,231.985 58.000 C 231.717 57.010,231.471 54.940,231.440 53.400 C 231.350 49.028,229.864 47.383,221.400 42.284 C 206.769 33.471,194.422 30.804,178.000 32.908 M168.800 34.263 C 157.409 36.420,138.206 41.539,138.901 42.234 C 138.996 42.330,141.038 41.763,143.437 40.976 C 149.604 38.952,160.360 36.284,167.400 35.032 C 174.838 33.710,174.912 33.693,173.200 33.694 C 172.430 33.695,170.450 33.951,168.800 34.263 M187.113 37.095 C 188.276 37.176,190.076 37.176,191.113 37.093 C 192.151 37.011,191.200 36.945,189.000 36.946 C 186.800 36.947,185.951 37.014,187.113 37.095 M134.213 43.833 C 122.949 48.242,116.093 54.165,110.643 64.200 C 109.389 66.509,109.711 66.076,112.981 61.056 C 118.228 53.002,124.445 48.107,134.400 44.193 C 136.490 43.372,138.275 42.632,138.367 42.550 C 138.821 42.142,137.466 42.560,134.213 43.833 M172.345 44.095 C 172.644 44.477,172.781 45.071,172.649 45.416 C 172.511 45.776,172.577 45.938,172.805 45.797 C 173.416 45.419,173.273 44.556,172.500 43.949 C 171.867 43.452,171.852 43.466,172.345 44.095 M209.300 44.676 C 209.685 44.776,210.315 44.776,210.700 44.676 C 211.085 44.575,210.770 44.493,210.000 44.493 C 209.230 44.493,208.915 44.575,209.300 44.676 M121.781 56.900 L 120.200 58.600 121.900 57.019 C 122.835 56.149,123.600 55.384,123.600 55.319 C 123.600 55.016,123.252 55.319,121.781 56.900 M215.567 65.352 C 215.475 65.436,211.170 65.719,206.000 65.980 C 175.811 67.510,169.481 69.524,165.018 79.019 C 161.201 87.139,161.113 87.274,156.972 91.393 C 151.308 97.027,149.817 101.726,150.804 110.837 C 151.518 117.429,151.319 118.449,148.830 120.969 C 146.078 123.756,145.729 123.407,153.200 125.347 C 173.929 130.731,181.775 130.821,198.800 125.870 C 202.870 124.687,207.460 123.488,209.000 123.206 C 210.540 122.924,212.078 122.551,212.419 122.376 C 214.859 121.124,230.712 123.607,235.359 125.969 C 237.096 126.852,238.699 127.462,238.920 127.326 C 239.912 126.713,238.697 104.557,237.187 95.724 C 234.849 82.048,229.122 67.276,225.912 66.641 C 225.410 66.541,223.740 66.176,222.200 65.829 C 219.630 65.250,215.967 64.986,215.567 65.352 M107.897 69.089 C 104.811 75.005,100.957 85.103,99.996 89.792 C 98.725 95.990,101.761 103.928,108.125 111.042 L 109.876 113.000 110.129 117.200 C 110.460 122.718,111.472 126.504,114.175 132.347 C 115.397 134.987,116.581 138.105,116.805 139.274 C 117.864 144.788,118.165 145.927,119.072 147.843 C 122.243 154.539,136.302 160.890,142.917 158.616 C 145.344 157.781,145.666 157.925,148.713 161.191 L 151.225 163.884 150.220 165.885 C 149.392 167.535,148.906 168.004,147.450 168.560 C 142.775 170.345,134.985 182.173,137.010 184.411 C 137.791 185.274,137.676 185.360,132.600 187.675 C 127.636 189.939,121.831 192.230,111.000 196.201 C 70.662 210.992,64.169 219.840,46.607 283.958 C 45.378 288.446,44.424 292.272,44.487 292.461 C 44.550 292.650,45.573 289.248,46.761 284.902 C 64.907 218.516,70.232 211.540,115.400 194.994 C 131.573 189.069,140.021 184.968,137.622 184.207 C 134.685 183.275,143.376 170.288,147.922 168.815 C 149.407 168.334,149.779 167.973,150.622 166.190 C 151.867 163.557,152.088 164.139,148.422 160.398 L 145.245 157.156 143.922 157.850 C 140.473 159.660,132.169 157.930,125.613 154.036 C 120.838 151.199,118.928 148.203,117.667 141.573 C 117.078 138.478,116.242 135.978,114.430 131.894 C 111.540 125.378,110.886 122.880,110.532 117.019 C 110.277 112.771,110.230 112.602,109.001 111.419 C 103.562 106.186,99.552 97.197,100.141 91.560 C 100.574 87.418,104.822 75.687,108.229 69.226 C 108.975 67.811,109.524 66.591,109.448 66.515 C 109.373 66.439,108.675 67.598,107.897 69.089 M218.714 95.425 C 219.204 95.768,221.719 96.653,224.303 97.391 C 236.079 100.756,236.197 101.799,224.800 101.760 C 216.116 101.730,214.000 100.952,214.000 97.787 C 214.000 95.243,216.596 93.942,218.714 95.425 M200.618 97.382 C 204.566 101.330,196.451 104.304,181.125 104.526 C 172.059 104.658,173.067 103.088,183.866 100.255 C 187.790 99.226,192.440 97.957,194.200 97.436 C 198.419 96.186,199.414 96.178,200.618 97.382 M114.493 100.000 C 114.493 100.770,114.575 101.085,114.676 100.700 C 114.776 100.315,114.776 99.685,114.676 99.300 C 114.575 98.915,114.493 99.230,114.493 100.000 M243.139 110.600 C 243.459 118.444,243.432 124.600,243.015 138.600 C 242.839 144.540,242.813 149.291,242.957 149.157 C 243.707 148.462,243.944 114.125,243.244 107.600 C 242.965 105.007,242.940 105.720,243.139 110.600 M114.120 108.400 C 114.120 109.610,114.195 110.105,114.287 109.500 C 114.378 108.895,114.378 107.905,114.287 107.300 C 114.195 106.695,114.120 107.190,114.120 108.400 M232.946 108.029 C 235.484 110.025,233.645 113.200,229.951 113.200 C 228.110 113.200,227.981 113.272,227.423 114.606 C 226.189 117.561,222.400 116.897,222.400 113.726 C 222.400 113.010,222.059 112.740,220.700 112.378 C 215.657 111.035,216.816 108.608,222.894 107.786 C 228.841 106.982,231.703 107.051,232.946 108.029 M199.111 109.823 C 202.205 111.990,199.073 114.767,193.510 114.790 C 191.366 114.799,191.180 114.878,190.589 116.021 C 188.674 119.725,186.021 119.801,184.349 116.200 C 183.797 115.010,183.758 114.998,179.796 114.770 C 175.008 114.495,174.000 114.213,174.000 113.153 C 174.000 110.737,196.211 107.792,199.111 109.823 M136.300 119.476 C 134.387 119.976,135.729 120.757,140.680 122.028 C 144.808 123.088,145.599 122.870,143.721 121.192 C 141.884 119.551,138.769 118.830,136.300 119.476 M129.200 121.000 C 129.970 121.297,130.870 121.539,131.200 121.539 C 131.530 121.539,131.170 121.297,130.400 121.000 C 129.630 120.703,128.730 120.461,128.400 120.461 C 128.070 120.461,128.430 120.703,129.200 121.000 M134.800 122.637 C 136.450 123.164,137.980 123.579,138.200 123.558 C 138.420 123.538,137.250 123.090,135.600 122.563 C 133.950 122.036,132.420 121.621,132.200 121.642 C 131.980 121.662,133.150 122.110,134.800 122.637 M126.000 123.200 C 127.542 123.694,128.364 123.694,127.600 123.200 C 127.270 122.987,126.550 122.827,126.000 122.846 L 125.000 122.880 126.000 123.200 M129.200 124.035 C 130.600 124.676,142.070 127.995,142.800 127.971 C 143.130 127.960,140.340 127.051,136.600 125.951 C 128.713 123.632,127.808 123.398,129.200 124.035 M140.000 124.200 C 140.770 124.497,141.760 124.741,142.200 124.743 C 142.640 124.745,142.190 124.491,141.200 124.179 C 138.939 123.467,138.133 123.481,140.000 124.200 M143.243 124.951 C 143.605 125.351,149.235 126.855,149.740 126.687 C 149.980 126.607,149.011 126.242,147.588 125.875 C 146.165 125.509,144.550 125.091,144.000 124.946 C 143.450 124.801,143.109 124.803,143.243 124.951 M210.600 125.403 C 207.577 125.960,203.922 126.961,206.200 126.607 C 206.860 126.505,209.110 126.128,211.200 125.770 C 213.886 125.310,216.525 125.170,220.200 125.291 C 223.060 125.385,224.860 125.334,224.200 125.178 C 222.213 124.709,213.593 124.851,210.600 125.403 M227.600 126.228 C 228.810 126.544,230.576 127.091,231.524 127.444 C 232.473 127.796,233.334 127.999,233.439 127.894 C 233.702 127.631,227.190 125.590,226.200 125.625 C 225.760 125.640,226.390 125.911,227.600 126.228 M128.421 127.900 C 125.843 137.182,131.317 146.003,139.284 145.404 L 142.768 145.142 143.884 147.219 C 146.930 152.886,153.246 161.200,154.506 161.200 C 156.852 161.200,163.738 150.120,165.745 143.114 C 168.047 135.078,167.859 134.509,162.637 133.737 C 160.637 133.441,156.530 132.715,153.510 132.123 C 147.257 130.896,146.938 130.971,148.944 133.191 C 150.516 134.930,150.617 135.246,149.986 136.426 C 149.411 137.501,149.107 137.422,146.708 135.585 C 143.860 133.403,138.678 130.883,136.040 130.396 C 133.558 129.938,132.977 129.559,132.628 128.169 C 132.378 127.175,131.049 126.400,129.593 126.400 C 129.061 126.400,128.714 126.843,128.421 127.900 M151.800 127.411 C 152.680 127.701,153.760 127.940,154.200 127.943 C 154.640 127.945,154.190 127.691,153.200 127.379 C 152.210 127.067,151.130 126.828,150.800 126.848 C 150.470 126.868,150.920 127.121,151.800 127.411 M201.800 127.411 C 200.920 127.701,200.470 127.950,200.800 127.963 C 201.130 127.977,202.210 127.733,203.200 127.421 C 204.190 127.109,204.640 126.860,204.200 126.869 C 203.760 126.877,202.680 127.121,201.800 127.411 M147.200 129.037 C 149.290 129.560,151.360 129.945,151.800 129.893 C 152.240 129.842,150.692 129.395,148.361 128.900 C 142.919 127.745,142.315 127.816,147.200 129.037 M155.800 128.400 C 156.240 128.589,156.960 128.744,157.400 128.744 L 158.200 128.744 157.400 128.400 C 156.960 128.211,156.240 128.056,155.800 128.056 L 155.000 128.056 155.800 128.400 M198.000 128.391 C 197.450 128.571,196.140 128.942,195.089 129.215 C 194.037 129.487,193.249 129.783,193.338 129.871 C 193.509 130.042,199.670 128.463,199.960 128.173 C 200.230 127.903,199.106 128.028,198.000 128.391 M236.072 129.211 C 237.321 129.857,238.626 130.788,238.972 131.281 C 239.317 131.774,239.600 131.989,239.600 131.759 C 239.600 130.891,235.284 127.948,234.116 128.019 C 233.942 128.030,234.822 128.566,236.072 129.211 M161.400 129.605 C 163.160 130.050,165.005 130.505,165.500 130.615 C 167.564 131.074,166.270 131.597,163.500 131.423 L 160.600 131.241 163.538 131.663 C 168.521 132.378,168.699 130.827,163.757 129.756 C 159.404 128.812,157.878 128.715,161.400 129.605 M123.320 131.600 C 123.320 132.810,123.395 133.305,123.487 132.700 C 123.578 132.095,123.578 131.105,123.487 130.500 C 123.395 129.895,123.320 130.390,123.320 131.600 M153.300 130.276 C 153.685 130.376,154.315 130.376,154.700 130.276 C 155.085 130.175,154.770 130.093,154.000 130.093 C 153.230 130.093,152.915 130.175,153.300 130.276 M189.200 130.620 C 188.210 130.904,187.760 131.147,188.200 131.160 C 188.640 131.174,189.900 130.934,191.000 130.628 C 192.100 130.322,192.550 130.079,192.000 130.088 C 191.450 130.097,190.190 130.336,189.200 130.620 M156.600 130.800 C 157.260 130.968,158.340 131.106,159.000 131.107 C 160.009 131.108,159.945 131.055,158.600 130.777 C 156.574 130.358,154.937 130.377,156.600 130.800 M168.780 131.300 C 168.769 131.355,168.700 133.920,168.627 137.000 C 168.554 140.080,168.388 143.140,168.259 143.800 C 168.130 144.460,168.290 144.010,168.616 142.800 C 168.994 141.395,169.182 139.072,169.135 136.374 C 169.094 134.050,169.193 131.935,169.354 131.674 C 169.515 131.413,169.457 131.200,169.224 131.200 C 168.991 131.200,168.791 131.245,168.780 131.300 M171.400 131.605 C 172.982 131.950,177.089 132.139,176.767 131.851 C 176.675 131.770,175.070 131.602,173.200 131.479 C 170.772 131.320,170.257 131.356,171.400 131.605 M182.000 131.600 L 179.800 131.870 181.800 131.912 C 182.900 131.935,184.520 131.805,185.400 131.623 L 187.000 131.292 185.600 131.311 C 184.830 131.322,183.210 131.452,182.000 131.600 M239.853 133.400 C 239.996 134.060,240.247 135.230,240.410 136.000 C 240.700 137.361,240.708 137.367,240.724 136.200 C 240.732 135.540,240.481 134.370,240.166 133.600 C 239.644 132.325,239.616 132.307,239.853 133.400 M240.718 140.500 C 240.603 143.327,240.575 143.397,239.600 143.299 C 238.881 143.226,238.757 143.299,239.158 143.558 C 239.465 143.757,239.621 144.168,239.505 144.472 C 239.382 144.792,239.675 145.205,240.202 145.454 L 241.111 145.883 241.171 141.741 C 241.240 137.037,240.896 136.095,240.718 140.500 M226.407 140.413 C 227.334 142.146,232.997 145.245,235.115 145.178 C 235.492 145.167,234.810 144.838,233.600 144.447 C 230.909 143.579,229.010 142.610,227.979 141.579 C 226.611 140.211,227.139 139.956,229.187 140.993 C 230.279 141.547,231.404 141.992,231.687 141.982 C 232.362 141.958,227.259 139.600,226.532 139.600 C 226.093 139.600,226.066 139.776,226.407 140.413 M196.485 142.071 C 195.542 142.529,194.862 142.996,194.975 143.109 C 195.088 143.222,195.410 143.139,195.690 142.924 C 196.957 141.955,198.790 141.494,199.392 141.993 C 200.284 142.734,199.514 143.803,197.086 145.196 C 195.939 145.854,195.180 146.391,195.400 146.390 C 195.620 146.388,196.503 145.985,197.362 145.493 C 201.732 142.995,200.941 139.911,196.485 142.071 M234.200 142.628 C 235.300 142.934,236.650 143.170,237.200 143.151 C 237.750 143.133,237.120 142.874,235.800 142.576 C 232.691 141.875,231.617 141.909,234.200 142.628 M193.433 143.500 C 193.269 143.665,192.384 144.105,191.467 144.478 C 190.550 144.850,190.010 145.165,190.267 145.178 C 190.865 145.206,194.400 143.698,194.400 143.414 C 194.400 143.099,193.780 143.154,193.433 143.500 M167.242 146.842 C 165.807 151.698,161.246 159.050,157.227 162.985 C 156.043 164.144,155.200 165.325,155.200 165.824 C 155.200 167.640,168.145 176.626,172.400 177.764 C 172.950 177.911,172.094 177.405,170.499 176.640 C 165.675 174.327,157.054 168.265,155.873 166.355 C 155.558 165.846,156.012 165.091,158.040 162.755 C 163.264 156.738,168.560 147.481,167.905 145.514 C 167.826 145.278,167.528 145.875,167.242 146.842 M186.400 145.623 C 185.410 145.804,183.610 146.103,182.400 146.287 C 179.102 146.789,180.986 147.634,185.738 147.784 C 187.752 147.848,188.590 147.833,187.600 147.752 C 182.685 147.347,180.432 146.413,184.324 146.392 C 185.136 146.388,186.700 146.134,187.800 145.828 C 189.995 145.217,189.233 145.106,186.400 145.623 M236.705 145.483 C 237.202 145.579,237.922 145.575,238.305 145.475 C 238.687 145.375,238.280 145.296,237.400 145.301 C 236.520 145.305,236.207 145.387,236.705 145.483 M193.522 146.611 C 193.406 146.728,192.521 146.993,191.555 147.201 L 189.800 147.580 191.729 147.394 C 193.665 147.207,195.730 146.438,194.367 146.412 C 194.018 146.405,193.638 146.495,193.522 146.611 M240.446 147.055 C 239.790 159.146,226.451 176.224,213.875 181.073 C 212.514 181.598,211.940 181.927,212.600 181.805 C 218.655 180.682,228.038 173.202,233.536 165.115 C 236.712 160.444,241.213 148.976,240.679 146.918 C 240.526 146.329,240.484 146.353,240.446 147.055 M242.086 152.115 C 239.460 166.054,230.768 178.265,219.140 184.352 C 215.692 186.157,215.565 186.589,218.074 187.970 C 220.551 189.332,222.339 191.089,222.775 192.585 C 223.013 193.404,223.139 193.539,223.162 193.000 C 223.224 191.568,221.716 189.721,219.233 188.188 C 216.277 186.364,216.269 186.281,218.900 184.957 C 228.286 180.233,236.090 171.157,240.236 160.142 C 241.481 156.834,242.871 151.299,242.720 150.250 C 242.653 149.783,242.367 150.622,242.086 152.115 M150.123 170.257 C 149.823 171.038,154.491 175.770,155.296 175.501 C 156.193 175.202,155.841 174.459,153.639 172.007 C 151.420 169.535,150.563 169.109,150.123 170.257 M145.668 172.584 C 144.999 173.345,143.966 174.830,143.371 175.884 C 142.777 176.938,141.702 178.819,140.983 180.065 C 138.822 183.810,138.738 183.463,142.920 188.101 C 150.682 196.709,153.720 201.245,158.889 211.944 C 162.699 219.832,164.865 223.600,165.586 223.600 C 165.777 223.600,167.154 222.025,168.646 220.100 C 172.658 214.923,176.999 209.819,180.534 206.122 C 184.615 201.854,184.478 201.449,177.433 196.964 C 162.812 187.657,156.652 182.450,150.623 174.300 C 148.019 170.780,147.430 170.577,145.668 172.584 M150.394 175.424 C 154.918 181.650,161.603 187.735,169.711 193.004 C 184.758 202.785,183.839 201.316,178.503 207.051 C 174.950 210.870,169.119 217.857,166.525 221.403 C 165.360 222.995,165.427 223.091,160.025 212.124 C 154.360 200.623,151.517 196.363,143.727 187.701 C 139.741 183.269,139.793 183.953,143.027 178.350 C 147.347 170.867,147.143 170.948,150.394 175.424 M158.552 178.077 C 157.882 179.162,167.946 187.221,176.305 192.293 C 187.078 198.830,189.706 203.236,187.606 211.237 C 185.437 219.502,185.504 219.980,189.309 223.374 C 192.402 226.133,192.522 226.130,193.318 223.264 C 194.227 219.995,196.253 217.166,200.603 213.092 C 203.850 210.049,204.745 208.900,207.332 204.440 C 210.896 198.296,211.013 197.973,210.239 196.475 C 209.908 195.835,209.336 194.071,208.968 192.555 C 207.936 188.306,207.734 188.102,204.523 188.069 C 187.717 187.896,170.657 184.259,162.006 179.003 C 159.501 177.482,159.003 177.348,158.552 178.077 M177.200 179.400 C 177.970 179.697,179.050 179.937,179.600 179.934 C 180.199 179.931,179.798 179.705,178.600 179.372 C 176.093 178.674,175.354 178.689,177.200 179.400 M183.200 180.629 C 184.630 180.923,186.430 181.153,187.200 181.142 C 187.970 181.130,187.070 180.876,185.200 180.577 C 180.925 179.894,179.765 179.924,183.200 180.629 M190.600 181.618 C 193.347 182.046,195.631 182.012,193.200 181.580 C 192.210 181.403,190.770 181.270,190.000 181.283 C 188.855 181.303,188.965 181.364,190.600 181.618 M196.505 182.287 C 197.114 182.379,198.014 182.377,198.505 182.282 C 198.997 182.187,198.500 182.111,197.400 182.114 C 196.300 182.117,195.897 182.195,196.505 182.287 M202.708 182.888 C 204.527 183.084,206.764 183.096,207.679 182.915 C 208.929 182.668,208.108 182.579,204.371 182.559 L 199.400 182.531 202.708 182.888 M212.214 187.340 C 211.508 187.857,211.529 188.026,212.739 191.548 C 214.205 195.815,214.253 196.363,213.267 197.646 C 212.865 198.171,211.874 200.310,211.066 202.400 C 208.675 208.584,206.890 211.383,202.514 215.811 C 199.019 219.345,198.393 220.199,197.232 223.011 C 196.508 224.765,195.575 226.572,195.158 227.026 C 194.146 228.128,194.183 228.317,195.798 230.349 C 199.640 235.182,201.826 244.309,199.489 245.759 C 198.505 246.369,198.176 245.726,197.646 242.166 C 196.735 236.043,194.397 232.444,186.687 225.299 C 182.918 221.806,181.940 217.664,183.747 212.842 C 184.609 210.542,185.061 205.809,184.456 205.434 C 183.613 204.913,170.997 220.896,167.919 226.385 C 166.265 229.334,163.157 226.958,159.828 220.200 C 158.852 218.220,156.532 213.450,154.671 209.600 C 150.434 200.833,141.703 187.626,139.916 187.280 C 139.575 187.214,138.111 187.988,136.662 189.001 C 134.387 190.591,130.308 192.678,123.200 195.889 C 122.210 196.336,117.170 198.328,112.000 200.317 C 77.589 213.551,70.968 221.246,58.062 263.000 C 54.891 273.257,49.992 291.186,47.624 301.200 C 46.921 304.170,45.713 309.185,44.938 312.345 C 43.270 319.154,42.819 318.495,50.000 319.748 C 53.190 320.304,59.040 321.332,63.000 322.031 C 77.388 324.572,91.578 328.839,92.204 330.813 C 93.147 333.784,94.797 332.413,94.808 328.651 C 94.818 325.112,95.803 313.011,96.602 306.600 C 98.393 292.228,98.387 292.021,95.972 286.073 C 93.834 280.810,94.367 280.082,97.268 284.299 C 98.674 286.342,99.139 286.321,99.881 284.178 C 103.275 274.376,103.902 300.732,100.762 321.200 C 99.166 331.603,98.994 330.941,103.000 329.841 C 104.100 329.539,111.030 327.655,118.400 325.654 C 125.770 323.652,132.790 321.739,134.000 321.401 C 135.210 321.064,140.329 319.700,145.376 318.371 C 155.616 315.675,155.113 315.865,156.546 314.148 C 158.590 311.698,161.883 310.911,163.916 312.386 L 165.000 313.173 169.200 311.974 C 171.510 311.315,174.541 310.504,175.935 310.171 C 177.329 309.839,179.819 308.943,181.469 308.181 C 188.194 305.074,207.949 298.449,211.466 298.121 C 214.368 297.850,215.995 298.374,217.313 300.005 C 217.801 300.608,219.845 302.471,221.855 304.145 C 225.671 307.322,226.304 308.152,225.578 309.027 C 224.902 309.841,224.068 309.331,220.364 305.839 C 213.422 299.296,214.543 299.438,201.387 303.433 C 192.555 306.116,189.898 306.936,183.435 308.974 C 182.574 309.245,181.491 309.944,181.027 310.525 C 179.999 311.814,177.909 312.521,167.648 315.047 C 159.070 317.160,158.532 317.432,157.967 319.947 C 156.981 324.338,160.096 336.074,163.100 339.281 C 165.029 341.339,165.716 341.206,173.088 337.332 L 179.800 333.806 183.040 333.803 C 186.226 333.800,186.361 333.758,191.194 331.285 C 198.317 327.640,200.259 327.713,208.710 331.950 C 213.838 334.522,216.400 334.428,216.400 331.668 C 216.400 327.664,209.423 324.083,199.500 322.995 C 196.731 322.691,195.487 321.773,196.656 320.895 C 198.964 319.161,211.743 322.763,215.580 326.230 C 216.826 327.355,217.422 327.613,218.662 327.565 C 219.508 327.533,221.126 327.640,222.259 327.804 C 224.650 328.150,225.027 327.771,225.464 324.587 L 225.717 322.742 224.354 322.997 C 222.413 323.362,221.157 322.750,218.211 320.010 L 215.620 317.600 213.110 317.597 C 211.730 317.596,208.578 317.886,206.106 318.242 C 200.631 319.031,197.149 318.560,201.633 317.637 C 202.605 317.437,205.744 316.789,208.609 316.197 C 215.164 314.842,216.177 315.036,219.738 318.328 C 222.085 320.499,225.338 322.395,225.846 321.888 C 225.977 321.757,226.585 319.344,227.197 316.525 C 231.902 294.872,243.476 254.876,246.345 250.351 C 248.556 246.865,250.799 245.763,258.804 244.229 C 265.309 242.983,265.404 242.919,264.431 240.464 C 264.025 239.439,262.587 235.741,261.236 232.247 C 254.692 215.325,252.096 212.314,237.093 204.244 C 228.105 199.410,225.279 197.600,226.718 197.600 C 227.655 197.600,244.206 204.263,247.400 205.926 C 255.473 210.129,260.296 216.650,264.615 229.200 C 266.713 235.299,269.139 240.735,270.122 241.541 C 270.796 242.095,273.968 241.743,282.200 240.201 C 287.084 239.286,283.805 239.560,277.295 240.611 C 273.851 241.167,270.789 241.528,270.492 241.414 C 269.729 241.121,267.231 235.541,265.037 229.227 C 259.975 214.660,255.126 208.769,244.200 203.915 C 234.089 199.423,227.196 196.668,224.900 196.201 C 223.843 195.986,223.591 195.737,223.550 194.868 C 223.522 194.281,223.270 195.905,222.989 198.479 C 222.485 203.101,222.460 203.176,220.939 204.722 C 220.093 205.583,218.680 207.224,217.800 208.369 C 216.920 209.513,215.622 211.163,214.916 212.035 C 213.276 214.060,212.805 215.805,212.802 219.867 C 212.798 225.859,211.955 225.966,206.109 220.718 C 204.035 218.857,203.742 218.848,201.790 220.584 C 199.764 222.386,199.594 222.103,201.198 219.603 C 203.258 216.393,204.316 216.116,207.042 218.073 C 209.102 219.552,209.329 219.420,209.913 216.400 C 210.543 213.140,210.926 212.366,213.267 209.611 C 218.621 203.312,219.991 200.355,219.998 195.086 C 220.001 192.305,219.414 191.588,213.624 187.301 C 213.082 186.900,212.806 186.908,212.214 187.340 M142.881 191.900 C 148.333 199.095,152.226 205.826,156.450 215.362 C 161.849 227.549,166.484 231.707,168.937 226.563 C 169.962 224.413,182.160 208.043,183.229 207.382 C 183.841 207.004,183.639 209.598,182.794 212.951 C 181.766 217.029,181.768 219.977,182.799 221.998 C 183.604 223.576,184.401 224.446,189.390 229.200 C 193.893 233.491,196.322 238.035,196.967 243.374 C 197.397 246.938,199.239 248.334,200.656 246.171 C 202.463 243.413,200.832 236.201,197.164 230.738 L 195.646 228.477 196.723 226.442 C 197.477 225.017,198.044 224.406,198.615 224.403 C 199.063 224.402,200.317 223.500,201.400 222.400 C 203.833 219.929,203.950 219.930,206.736 222.439 C 212.032 227.210,213.407 226.711,213.678 219.924 C 213.883 214.772,214.121 214.144,217.186 210.649 C 218.320 209.356,219.545 207.826,219.908 207.249 C 220.271 206.672,221.250 205.553,222.084 204.761 C 223.463 203.453,223.603 203.127,223.628 201.161 C 223.676 197.501,223.864 197.364,226.404 199.149 C 227.612 199.998,232.020 202.535,236.200 204.787 C 248.766 211.558,252.806 215.160,256.181 222.600 C 256.779 223.920,257.517 225.540,257.821 226.200 C 258.124 226.860,259.264 229.740,260.354 232.600 C 261.443 235.460,262.709 238.670,263.167 239.733 C 263.625 240.796,264.000 241.803,264.000 241.971 C 264.000 242.138,262.425 242.584,260.500 242.962 C 246.731 245.665,246.131 246.219,241.616 260.400 C 235.566 279.400,233.586 286.482,228.595 306.971 C 227.829 310.118,227.367 310.506,226.818 308.466 C 226.458 307.129,225.746 306.295,222.929 303.915 C 221.033 302.312,218.732 300.250,217.817 299.332 C 215.912 297.424,214.324 296.969,210.843 297.332 C 207.522 297.680,191.014 303.189,182.400 306.825 C 179.870 307.893,176.810 309.028,175.600 309.346 C 174.390 309.664,171.605 310.407,169.412 310.997 C 165.684 311.998,165.353 312.027,164.350 311.434 C 161.978 310.033,158.002 311.055,155.843 313.622 C 154.746 314.926,153.008 315.487,138.000 319.387 C 135.690 319.987,132.990 320.713,132.000 321.000 C 131.010 321.287,128.310 322.007,126.000 322.600 C 123.690 323.193,120.990 323.910,120.000 324.194 C 119.010 324.478,116.805 325.090,115.100 325.555 C 108.455 327.366,105.709 328.131,103.400 328.815 C 100.506 329.671,100.268 329.504,100.778 326.971 C 104.202 309.943,104.789 281.692,101.743 280.523 C 100.959 280.222,99.200 282.043,99.200 283.156 C 99.200 284.540,98.676 284.342,96.635 282.183 C 92.856 278.187,92.468 279.403,95.221 286.618 C 97.562 292.750,97.506 291.881,96.214 302.200 C 94.857 313.028,93.998 322.695,93.999 327.100 C 94.000 331.230,93.988 331.249,92.407 329.669 C 90.424 327.685,78.148 323.945,65.800 321.563 C 61.178 320.671,49.928 318.805,47.004 318.445 C 44.437 318.130,44.434 318.107,46.151 311.116 C 50.145 294.844,50.923 291.742,52.348 286.400 C 59.114 261.041,65.406 242.221,70.237 232.891 C 78.589 216.762,86.525 211.050,116.800 199.380 C 125.209 196.139,134.184 191.867,137.200 189.671 C 138.410 188.789,139.518 188.053,139.663 188.034 C 139.807 188.015,141.255 189.755,142.881 191.900 M213.805 188.409 C 213.944 188.634,215.007 189.519,216.167 190.375 C 220.862 193.844,219.609 202.382,213.611 207.793 C 211.650 209.561,209.986 212.372,209.313 215.051 C 208.459 218.447,208.575 218.303,207.498 217.295 C 207.004 216.832,206.108 216.267,205.507 216.039 L 204.413 215.625 206.421 212.972 C 208.649 210.028,210.002 207.470,212.012 202.400 C 212.753 200.530,213.684 198.628,214.080 198.174 C 215.078 197.030,214.985 194.911,213.800 191.762 C 212.602 188.579,212.606 186.468,213.805 188.409 M176.667 220.267 C 174.684 222.250,180.458 230.724,184.281 231.442 C 185.115 231.598,186.293 232.231,186.923 232.862 C 188.138 234.077,189.143 234.297,189.920 233.520 C 191.326 232.114,189.406 229.084,186.671 228.393 C 182.671 227.381,181.726 226.659,179.868 223.200 C 178.591 220.823,177.297 219.637,176.667 220.267 M104.936 223.822 C 104.686 224.474,105.337 229.018,107.368 240.800 C 108.343 246.453,109.126 251.247,109.557 254.200 C 112.320 273.125,112.524 274.000,114.169 274.000 C 115.664 274.000,116.000 273.233,115.999 269.820 C 115.991 252.283,107.524 217.078,104.936 223.822 M180.383 225.848 C 181.340 227.254,182.437 227.893,186.590 229.465 C 188.829 230.313,190.167 231.993,189.297 232.863 C 188.908 233.252,188.571 233.130,187.683 232.280 C 187.066 231.688,185.580 230.917,184.381 230.565 C 181.803 229.808,180.607 228.804,179.566 226.522 C 178.355 223.868,178.790 223.509,180.383 225.848 M108.326 229.913 C 109.486 233.633,110.845 238.983,112.158 245.000 C 114.437 255.448,115.924 271.702,114.693 272.723 C 113.807 273.458,113.280 272.566,112.833 269.569 C 112.622 268.156,112.165 265.200,111.817 263.000 C 111.470 260.800,110.737 256.030,110.189 252.400 C 109.641 248.770,108.927 244.360,108.603 242.600 C 107.556 236.914,106.020 227.004,106.008 225.851 C 105.990 224.128,107.161 226.182,108.326 229.913 M124.539 229.415 C 124.397 229.785,124.491 235.332,124.748 241.743 C 125.583 262.626,125.501 262.000,127.420 262.000 C 131.849 262.000,131.789 242.995,127.323 231.000 C 126.529 228.868,125.068 228.036,124.539 229.415 M126.625 231.798 C 129.258 238.101,130.472 248.423,129.424 255.600 C 127.521 268.638,125.616 258.223,125.602 234.700 C 125.600 230.043,125.733 229.664,126.625 231.798 M355.200 232.812 L 349.800 233.059 356.729 233.052 C 365.278 233.043,364.858 232.713,363.794 238.600 C 363.476 240.360,363.229 242.160,363.245 242.600 C 363.279 243.510,364.163 239.244,364.585 236.133 C 364.932 233.582,364.023 232.348,361.900 232.483 C 361.185 232.528,358.170 232.677,355.200 232.812 M335.600 233.854 C 331.750 234.151,327.070 234.566,325.200 234.776 L 321.800 235.159 325.400 234.977 C 329.809 234.755,346.546 233.641,348.200 233.459 C 351.713 233.075,341.585 233.392,335.600 233.854 M313.600 235.843 L 309.800 236.363 313.400 236.123 C 315.380 235.990,318.080 235.756,319.400 235.602 L 321.800 235.322 319.600 235.323 C 318.390 235.323,315.690 235.557,313.600 235.843 M356.186 236.299 C 360.581 236.445,360.855 236.605,360.358 238.741 C 360.172 239.543,360.033 240.560,360.051 241.000 C 360.068 241.440,360.318 240.720,360.606 239.400 C 361.328 236.092,361.183 235.982,356.251 236.084 L 352.200 236.167 356.186 236.299 M303.800 236.836 C 302.480 237.022,297.710 237.673,293.201 238.282 C 288.692 238.891,285.320 239.451,285.708 239.525 C 286.096 239.600,289.786 239.195,293.907 238.625 C 298.028 238.055,303.290 237.343,305.600 237.042 C 307.910 236.741,308.990 236.495,308.000 236.496 C 307.010 236.497,305.120 236.650,303.800 236.836 M340.400 236.800 L 337.400 237.056 340.200 237.079 C 341.740 237.092,344.890 236.974,347.200 236.818 L 351.400 236.534 347.400 236.539 C 345.200 236.542,342.050 236.659,340.400 236.800 M327.000 237.828 L 322.600 238.343 326.800 238.113 C 329.110 237.987,332.440 237.758,334.200 237.604 L 337.400 237.324 334.400 237.318 C 332.750 237.315,329.420 237.544,327.000 237.828 M313.800 239.038 L 310.200 239.560 313.600 239.333 C 315.470 239.208,318.170 238.973,319.600 238.810 L 322.200 238.514 319.800 238.515 C 318.480 238.515,315.780 238.751,313.800 239.038 M300.600 240.441 C 294.037 241.301,292.359 241.635,296.000 241.358 C 300.579 241.010,310.273 239.692,308.200 239.700 C 307.100 239.704,303.680 240.038,300.600 240.441 M288.000 242.214 C 286.570 242.489,285.940 242.722,286.600 242.732 C 287.260 242.742,289.060 242.512,290.600 242.220 C 292.309 241.896,292.855 241.695,292.000 241.702 C 291.230 241.709,289.430 241.940,288.000 242.214 M357.663 253.714 C 356.488 260.241,355.619 265.810,355.732 266.090 C 355.877 266.452,355.948 266.426,355.976 266.000 C 356.017 265.380,357.722 255.650,359.195 247.634 C 359.656 245.123,359.981 242.794,359.916 242.459 C 359.851 242.123,358.837 247.188,357.663 253.714 M281.200 243.199 C 280.430 243.374,278.180 243.753,276.200 244.041 C 274.220 244.330,272.960 244.618,273.400 244.682 C 273.840 244.746,276.720 244.367,279.800 243.839 C 282.880 243.310,284.770 242.879,284.000 242.879 C 283.230 242.880,281.970 243.024,281.200 243.199 M362.488 246.230 C 362.232 247.753,361.737 250.890,361.387 253.200 C 361.037 255.510,360.581 258.264,360.375 259.320 C 360.169 260.376,360.020 261.726,360.044 262.320 C 360.091 263.483,360.541 261.087,362.195 250.877 C 362.776 247.289,363.184 244.153,363.102 243.907 C 363.020 243.661,362.744 244.706,362.488 246.230 M264.800 246.000 C 261.830 246.609,259.742 247.127,260.160 247.153 C 260.884 247.198,263.606 246.714,269.800 245.441 C 271.340 245.124,272.060 244.872,271.400 244.879 C 270.740 244.887,267.770 245.391,264.800 246.000 M255.000 247.780 C 249.968 249.018,248.738 250.587,245.967 259.302 C 244.853 262.807,244.033 265.766,244.145 265.878 C 244.256 265.989,244.535 265.388,244.764 264.540 C 248.287 251.529,249.801 249.327,256.166 247.957 C 257.945 247.574,258.860 247.267,258.200 247.275 C 257.540 247.282,256.100 247.510,255.000 247.780 M359.200 267.000 C 358.909 268.872,358.761 270.494,358.871 270.604 C 358.981 270.714,359.300 269.263,359.580 267.380 C 359.860 265.497,360.008 263.875,359.909 263.776 C 359.810 263.677,359.491 265.128,359.200 267.000 M243.236 268.036 C 242.966 268.939,242.818 269.752,242.908 269.842 C 242.998 269.932,243.293 269.266,243.564 268.364 C 243.834 267.461,243.982 266.648,243.892 266.558 C 243.802 266.468,243.507 267.134,243.236 268.036 M354.899 269.246 C 354.220 272.846,354.325 274.027,355.037 270.800 C 355.352 269.370,355.562 267.840,355.504 267.400 C 355.445 266.960,355.173 267.791,354.899 269.246 M242.400 270.528 C 242.400 270.672,241.255 274.797,239.855 279.695 C 236.377 291.868,235.066 296.799,235.257 296.990 C 235.345 297.079,236.114 294.597,236.966 291.476 C 237.817 288.354,239.483 282.400,240.667 278.244 C 241.852 274.088,242.726 270.593,242.610 270.477 C 242.495 270.361,242.400 270.384,242.400 270.528 M358.099 273.646 C 357.824 275.101,357.617 276.721,357.638 277.246 C 357.658 277.771,357.930 276.940,358.242 275.400 C 358.553 273.860,358.761 272.240,358.703 271.800 C 358.645 271.360,358.373 272.191,358.099 273.646 M353.800 275.200 C 353.646 276.110,353.611 276.944,353.721 277.054 C 353.831 277.164,354.046 276.510,354.200 275.600 C 354.354 274.690,354.389 273.856,354.279 273.746 C 354.169 273.636,353.954 274.290,353.800 275.200 M303.770 275.734 C 303.646 276.058,303.618 276.926,303.708 277.662 C 303.853 278.849,303.879 278.805,303.936 277.272 C 304.063 273.848,307.731 277.044,309.516 282.133 C 310.037 283.619,310.556 284.288,311.694 284.942 C 312.636 285.483,313.403 286.334,313.770 287.248 C 314.167 288.235,314.930 289.034,316.169 289.760 C 323.242 293.906,317.022 300.520,305.400 301.211 L 300.200 301.520 305.400 301.422 C 317.416 301.195,324.170 293.368,315.962 289.181 C 314.998 288.689,314.400 288.101,314.400 287.646 C 314.400 286.598,313.032 284.993,311.653 284.422 C 310.743 284.045,310.380 283.542,310.039 282.191 C 309.132 278.589,304.504 273.822,303.770 275.734 M352.821 280.821 C 352.534 282.588,352.389 284.122,352.498 284.232 C 352.608 284.341,352.924 282.977,353.200 281.200 C 353.476 279.423,353.622 277.888,353.523 277.789 C 353.424 277.690,353.108 279.055,352.821 280.821 M356.430 283.986 C 355.931 287.056,355.595 289.785,355.683 290.049 C 355.771 290.314,356.264 287.886,356.778 284.654 C 357.292 281.423,357.628 278.695,357.525 278.592 C 357.422 278.489,356.930 280.916,356.430 283.986 M302.658 280.861 C 302.211 281.811,301.061 283.068,299.760 284.029 C 296.970 286.091,296.280 287.151,296.603 288.878 C 296.831 290.090,296.702 290.345,295.289 291.481 C 291.151 294.806,293.950 301.265,299.496 301.191 C 299.883 301.185,299.120 300.740,297.800 300.200 C 292.775 298.147,291.895 294.405,295.746 291.468 C 297.008 290.506,297.133 290.232,297.070 288.568 C 297.011 287.017,297.166 286.596,298.065 285.865 C 298.650 285.389,299.866 284.404,300.767 283.675 C 302.352 282.394,303.779 280.292,303.524 279.616 C 303.456 279.434,303.066 279.995,302.658 280.861 M304.240 282.745 C 303.441 283.834,301.890 285.301,300.793 286.004 C 298.601 287.411,298.135 288.816,299.600 289.600 C 300.720 290.199,300.596 290.800,299.354 290.800 C 297.984 290.800,295.200 293.769,295.200 295.230 C 295.200 296.937,298.414 299.241,300.680 299.160 C 301.660 299.125,301.611 299.075,300.287 298.763 C 295.623 297.665,294.507 295.612,297.047 292.801 C 298.192 291.533,298.775 291.200,299.847 291.200 C 301.484 291.200,301.647 290.385,300.200 289.437 C 298.752 288.488,298.951 287.854,301.207 286.233 C 302.311 285.440,303.706 284.080,304.307 283.211 C 305.431 281.585,306.163 281.224,306.560 282.100 C 306.684 282.375,306.744 282.255,306.693 281.833 C 306.524 280.438,305.713 280.739,304.240 282.745 M307.050 284.400 C 307.365 286.761,307.857 287.329,309.335 287.033 C 311.796 286.541,312.363 288.703,310.368 290.975 C 308.100 293.558,309.905 295.113,312.513 292.823 C 314.199 291.342,314.554 291.318,315.831 292.595 C 317.768 294.532,314.834 297.524,309.961 298.581 C 308.262 298.949,307.814 299.147,308.629 299.168 C 312.974 299.281,318.201 294.988,316.634 292.595 C 315.631 291.065,314.146 290.989,312.556 292.385 C 309.999 294.630,308.664 293.733,310.816 291.215 C 312.972 288.693,312.181 286.052,309.424 286.569 C 308.064 286.824,308.031 286.798,307.598 285.115 C 306.950 282.594,306.780 282.372,307.050 284.400 M351.631 287.960 C 351.339 289.760,351.177 291.310,351.272 291.405 C 351.524 291.657,352.523 285.769,352.328 285.183 C 352.237 284.910,351.923 286.160,351.631 287.960 M355.232 291.144 C 355.214 291.443,354.570 295.351,353.800 299.828 C 353.030 304.305,352.417 308.290,352.438 308.684 C 352.481 309.482,353.022 306.737,354.604 297.706 C 355.191 294.355,355.579 291.385,355.467 291.106 C 355.312 290.722,355.256 290.731,355.232 291.144 M349.637 300.043 C 345.701 323.084,345.188 325.563,343.762 328.436 C 342.950 330.073,340.440 332.771,339.686 332.818 C 338.328 332.901,335.549 333.949,336.621 333.973 C 338.821 334.022,341.935 332.117,343.398 329.829 C 345.223 326.977,345.681 325.201,347.947 312.200 C 348.598 308.460,349.613 302.658,350.201 299.306 C 350.790 295.955,351.201 293.004,351.116 292.749 C 351.031 292.494,350.366 295.777,349.637 300.043 M42.626 299.426 C 41.793 302.846,41.190 305.723,41.286 305.819 C 41.382 305.915,42.142 303.195,42.974 299.774 C 43.807 296.354,44.410 293.477,44.314 293.381 C 44.218 293.285,43.458 296.005,42.626 299.426 M234.400 299.600 C 234.130 300.724,233.987 301.720,234.081 301.814 C 234.175 301.909,234.485 301.078,234.769 299.969 C 235.053 298.860,235.197 297.864,235.088 297.755 C 234.979 297.646,234.670 298.476,234.400 299.600 M303.507 299.490 C 304.226 299.579,305.306 299.577,305.907 299.486 C 306.508 299.395,305.920 299.322,304.600 299.324 C 303.280 299.326,302.788 299.401,303.507 299.490 M232.854 305.695 C 232.140 308.404,229.974 317.700,228.938 322.500 C 228.807 323.105,228.798 323.600,228.917 323.600 C 229.037 323.600,229.523 321.845,229.999 319.700 C 230.474 317.555,231.573 312.848,232.439 309.241 C 234.080 302.412,234.369 299.941,232.854 305.695 M40.482 308.375 C 40.217 309.522,40.015 310.762,40.033 311.131 C 40.052 311.499,40.325 310.731,40.641 309.424 C 40.957 308.117,41.159 306.877,41.089 306.668 C 41.020 306.460,40.746 307.228,40.482 308.375 M218.347 307.646 C 222.391 309.384,227.067 313.493,226.100 314.460 C 225.483 315.077,224.268 314.562,220.841 312.228 C 215.394 308.519,210.949 308.298,197.132 311.049 C 190.911 312.287,190.365 310.926,196.448 309.344 C 200.104 308.394,208.586 306.934,211.800 306.702 C 214.307 306.521,216.450 306.830,218.347 307.646 M351.857 311.087 C 351.720 311.919,351.061 315.730,350.393 319.556 C 349.255 326.068,348.933 329.617,349.943 324.510 C 350.946 319.437,352.458 309.924,352.287 309.754 C 352.188 309.655,351.994 310.254,351.857 311.087 M39.208 315.478 C 38.944 317.415,38.371 320.010,37.935 321.245 C 36.658 324.868,37.982 327.102,42.017 328.130 L 44.200 328.687 44.444 331.043 L 44.687 333.400 44.644 330.810 L 44.600 328.219 42.931 327.936 C 38.718 327.220,36.757 324.270,38.424 321.155 C 38.894 320.278,40.152 312.418,39.868 312.135 C 39.770 312.037,39.473 313.541,39.208 315.478 M150.000 319.594 C 146.686 320.516,125.152 326.273,117.800 328.202 C 111.915 329.746,93.698 334.305,85.200 336.359 C 80.988 337.378,75.059 339.150,72.300 340.215 C 71.915 340.364,71.600 340.315,71.600 340.106 C 71.600 339.302,77.835 336.775,85.575 334.444 C 86.111 334.282,86.617 333.948,86.700 333.700 C 87.030 332.710,67.673 327.096,56.017 324.802 C 53.716 324.349,50.776 323.705,49.484 323.370 C 48.191 323.035,46.834 322.800,46.467 322.848 C 46.100 322.896,45.318 322.702,44.729 322.417 C 43.483 321.813,42.091 322.074,40.751 323.161 L 39.800 323.932 40.740 324.934 C 42.353 326.655,43.979 327.113,44.814 326.082 L 45.512 325.220 45.751 326.110 C 45.882 326.600,45.995 330.240,46.003 334.200 C 46.046 356.508,48.446 367.115,55.455 375.978 C 65.843 389.116,75.894 387.833,112.400 368.712 C 114.710 367.502,122.270 363.585,129.200 360.008 C 136.130 356.432,144.140 352.289,147.000 350.802 C 149.860 349.315,153.848 347.260,155.863 346.234 C 160.625 343.812,160.709 343.697,159.161 341.757 C 155.842 337.596,154.031 330.977,153.865 322.405 C 153.790 318.469,153.860 318.520,150.000 319.594 M228.027 326.427 C 227.734 327.747,227.582 328.916,227.690 329.024 C 227.798 329.132,228.118 328.131,228.400 326.800 C 228.682 325.469,228.834 324.300,228.736 324.203 C 228.639 324.106,228.320 325.106,228.027 326.427 M348.425 328.897 C 347.376 332.451,344.936 335.491,341.879 337.053 C 339.734 338.149,337.849 338.559,330.000 339.637 C 326.488 340.120,325.649 340.309,327.600 340.180 C 338.832 339.433,343.994 337.572,346.752 333.275 C 348.012 331.312,349.449 327.715,349.109 327.376 C 349.010 327.276,348.702 327.961,348.425 328.897 M218.261 331.176 C 218.582 334.255,217.206 335.964,214.331 336.054 C 213.308 336.087,212.990 336.183,213.552 336.289 C 216.817 336.907,218.918 334.917,218.715 331.400 L 218.600 329.400 219.800 329.511 C 220.718 329.597,220.859 329.528,220.400 329.218 C 218.668 328.047,217.998 328.660,218.261 331.176 M222.545 330.310 L 224.091 330.943 223.873 334.172 C 223.714 336.531,223.750 336.969,224.005 335.800 C 224.902 331.688,224.001 329.453,221.520 329.639 C 221.234 329.660,221.695 329.962,222.545 330.310 M226.433 333.433 C 225.928 335.531,225.589 337.322,225.681 337.414 C 225.772 337.506,226.261 335.864,226.767 333.767 C 227.272 331.669,227.611 329.878,227.519 329.786 C 227.428 329.694,226.939 331.336,226.433 333.433 M195.800 331.331 C 195.140 331.613,193.217 332.509,191.526 333.322 C 189.836 334.135,188.126 334.801,187.726 334.802 C 185.015 334.811,182.904 336.413,184.900 336.948 C 186.279 337.317,187.117 337.196,186.074 336.778 C 184.846 336.285,185.282 335.693,187.114 335.366 C 187.931 335.220,190.555 334.200,192.944 333.099 C 198.608 330.488,199.812 330.547,206.427 333.755 C 208.972 334.990,211.402 335.986,211.827 335.968 C 212.347 335.947,212.208 335.807,211.400 335.538 C 210.740 335.319,208.335 334.216,206.057 333.086 C 201.536 330.845,198.253 330.284,195.800 331.331 M327.600 334.640 L 323.800 335.156 327.400 334.951 C 329.380 334.838,331.990 334.601,333.200 334.423 L 335.400 334.100 333.400 334.112 C 332.300 334.118,329.690 334.356,327.600 334.640 M44.172 343.400 C 44.172 348.460,44.229 350.475,44.299 347.877 C 44.369 345.280,44.368 341.140,44.298 338.677 C 44.228 336.215,44.171 338.340,44.172 343.400 M318.800 335.600 L 317.000 335.880 318.600 335.910 C 319.480 335.927,321.010 335.797,322.000 335.620 L 323.800 335.300 322.200 335.310 C 321.320 335.316,319.790 335.446,318.800 335.600 M309.400 336.605 C 307.309 336.889,306.471 337.107,307.400 337.125 C 308.280 337.142,310.710 336.915,312.800 336.620 C 315.045 336.304,315.863 336.091,314.800 336.100 C 313.810 336.109,311.380 336.336,309.400 336.605 M175.200 339.226 C 173.110 340.331,170.770 341.836,170.000 342.570 C 168.256 344.233,167.170 344.800,165.726 344.800 C 164.753 344.800,150.887 351.870,122.000 367.093 C 110.204 373.310,93.542 381.575,90.400 382.767 C 86.059 384.415,85.886 384.644,86.225 388.299 C 86.442 390.637,86.367 391.391,85.838 392.199 C 84.250 394.621,83.056 392.826,83.439 388.596 C 83.754 385.113,83.863 385.174,79.200 386.200 C 71.123 387.977,63.342 386.585,58.076 382.422 C 50.699 376.591,46.762 368.326,44.634 354.200 C 44.534 353.540,44.525 354.353,44.613 356.006 C 45.252 367.980,53.185 381.183,62.356 385.538 C 66.127 387.329,73.360 387.807,79.096 386.645 C 83.634 385.726,83.336 385.549,83.016 388.968 C 82.684 392.513,83.094 393.600,84.765 393.600 C 86.520 393.600,86.978 392.676,87.200 388.682 L 87.400 385.082 91.200 383.479 C 96.179 381.378,117.418 370.591,138.600 359.405 C 155.466 350.498,164.515 345.971,166.200 345.598 C 168.425 345.106,169.704 344.386,171.218 342.775 C 171.777 342.179,173.757 340.925,175.618 339.988 L 179.000 338.284 181.600 339.206 C 185.109 340.450,191.508 343.060,197.767 345.799 C 211.555 351.833,218.999 352.821,236.499 350.942 C 243.898 350.148,243.363 349.890,242.803 353.976 C 241.381 364.365,243.070 391.495,245.423 396.044 C 247.050 399.191,249.801 397.485,249.473 393.533 C 249.228 390.574,249.358 390.400,251.817 390.400 C 260.484 390.400,275.835 377.781,275.556 370.885 C 275.525 370.114,275.413 370.306,275.169 371.547 C 273.657 379.240,259.991 390.000,251.732 390.000 C 249.149 390.000,248.798 390.458,249.079 393.465 C 249.291 395.735,249.223 396.194,248.608 396.644 C 246.815 397.954,245.678 395.529,244.649 388.200 C 243.065 376.924,243.005 374.555,243.724 351.800 C 243.814 348.969,244.962 349.173,234.450 350.158 C 230.408 350.537,225.998 350.851,224.650 350.856 C 223.303 350.861,221.030 350.873,219.600 350.884 C 214.924 350.919,205.966 348.562,199.302 345.545 C 194.195 343.233,188.375 340.787,184.291 339.236 C 182.041 338.383,179.930 337.579,179.600 337.451 C 179.270 337.323,177.290 338.122,175.200 339.226 M188.400 337.800 C 190.295 338.530,191.341 338.517,189.654 337.784 C 188.914 337.463,188.014 337.214,187.654 337.230 C 187.294 337.247,187.630 337.503,188.400 337.800 M299.200 337.811 C 297.131 338.109,296.426 338.309,297.400 338.320 C 298.280 338.331,300.530 338.107,302.400 337.822 C 304.318 337.531,305.103 337.309,304.200 337.313 C 303.320 337.317,301.070 337.542,299.200 337.811 M223.200 338.823 C 223.200 341.697,222.294 345.810,221.508 346.500 C 220.610 347.289,220.856 347.412,222.052 346.772 C 222.638 346.459,223.009 346.476,223.443 346.836 C 223.914 347.227,224.830 347.186,227.918 346.637 C 230.053 346.258,233.510 345.709,235.600 345.417 C 237.690 345.125,238.836 344.867,238.148 344.843 C 237.459 344.819,234.489 345.185,231.548 345.655 C 222.739 347.065,223.283 347.386,224.793 341.670 C 225.277 339.838,225.600 338.266,225.511 338.178 C 225.422 338.089,225.023 339.276,224.624 340.816 C 223.600 344.765,223.077 344.776,223.420 340.843 C 223.576 339.059,223.590 337.600,223.452 337.600 C 223.313 337.600,223.200 338.150,223.200 338.823 M290.400 338.800 L 288.600 339.080 290.200 339.105 C 291.080 339.119,292.700 338.990,293.800 338.818 L 295.800 338.507 294.000 338.514 C 293.010 338.517,291.390 338.646,290.400 338.800 M197.400 340.834 C 207.187 344.730,214.773 346.846,218.600 346.748 C 220.388 346.702,220.283 346.659,217.601 346.349 C 212.557 345.765,208.303 344.542,198.800 340.944 C 196.270 339.986,194.020 339.211,193.800 339.222 C 193.580 339.233,195.200 339.958,197.400 340.834 M285.705 339.487 C 286.314 339.579,287.214 339.577,287.705 339.482 C 288.197 339.387,287.700 339.311,286.600 339.314 C 285.500 339.317,285.097 339.395,285.705 339.487 M279.600 340.000 L 277.800 340.280 279.400 340.310 C 280.280 340.327,281.810 340.197,282.800 340.020 L 284.600 339.700 283.000 339.710 C 282.120 339.716,280.590 339.846,279.600 340.000 M270.400 341.011 C 268.263 341.319,267.594 341.511,268.600 341.528 C 269.480 341.543,271.910 341.315,274.000 341.020 C 276.723 340.637,277.233 340.490,275.800 340.503 C 274.700 340.513,272.270 340.742,270.400 341.011 M316.600 341.005 C 314.620 341.274,313.630 341.507,314.400 341.521 C 315.170 341.536,317.780 341.311,320.200 341.022 C 323.205 340.663,323.902 340.499,322.400 340.506 C 321.190 340.511,318.580 340.736,316.600 341.005 M263.155 341.778 C 263.057 341.876,260.012 342.273,256.389 342.661 C 252.765 343.049,250.124 343.434,250.520 343.516 C 251.278 343.674,266.480 342.029,266.767 341.758 C 266.858 341.671,266.123 341.600,265.133 341.600 C 264.143 341.600,263.253 341.680,263.155 341.778 M309.167 341.761 C 309.075 341.850,306.042 342.244,302.426 342.637 C 298.810 343.029,296.069 343.423,296.334 343.511 C 296.855 343.685,312.492 342.016,312.767 341.757 C 312.858 341.671,312.123 341.600,311.133 341.600 C 310.143 341.600,309.258 341.673,309.167 341.761 M242.800 344.245 L 239.400 344.768 242.400 344.551 C 246.992 344.219,250.400 343.711,248.000 343.717 C 247.010 343.719,244.670 343.957,242.800 344.245 M288.400 344.211 C 286.530 344.481,285.630 344.713,286.400 344.728 C 287.170 344.743,289.600 344.517,291.800 344.224 C 294.465 343.870,295.132 343.697,293.800 343.707 C 292.700 343.715,290.270 343.942,288.400 344.211 M278.810 345.256 C 275.803 345.755,275.984 344.964,275.885 358.033 C 275.836 364.505,275.922 368.540,276.077 367.000 C 276.231 365.460,276.349 360.184,276.338 355.275 C 276.327 350.366,276.393 346.274,276.484 346.182 C 276.576 346.090,278.530 345.760,280.826 345.449 C 283.647 345.066,284.352 344.884,283.000 344.888 C 281.900 344.891,280.015 345.057,278.810 345.256 M258.678 347.789 C 251.980 348.542,246.955 349.285,246.678 349.562 C 245.456 350.784,246.652 381.481,248.020 384.038 C 249.785 387.335,258.935 383.314,265.290 376.449 C 268.223 373.281,268.703 372.097,269.621 365.756 C 270.457 359.979,270.976 357.354,272.505 351.177 C 273.900 345.543,275.392 345.909,258.678 347.789 M174.949 348.088 C 170.422 352.913,154.800 377.575,154.800 379.896 C 154.800 382.586,156.524 382.586,159.027 379.898 C 165.113 373.358,178.919 349.549,177.724 347.651 C 177.048 346.577,176.248 346.703,174.949 348.088 M176.800 348.806 C 176.800 352.897,158.384 381.494,156.272 380.683 C 154.731 380.092,157.654 374.660,166.972 360.803 C 174.849 349.089,176.800 346.707,176.800 348.806 " stroke="none" fill="#d18d5c" fill-rule="evenodd"></path><path id="path3" d="M146.497 172.900 C 145.409 174.061,140.400 182.730,140.400 183.451 C 140.400 183.754,141.897 185.666,143.727 187.701 C 151.517 196.363,154.360 200.623,160.025 212.124 C 165.427 223.091,165.360 222.995,166.525 221.403 C 169.119 217.857,174.950 210.870,178.503 207.051 C 183.372 201.818,183.380 201.910,177.692 198.200 C 175.668 196.880,172.076 194.542,169.711 193.004 C 161.603 187.735,154.918 181.650,150.394 175.424 C 147.626 171.614,147.673 171.644,146.497 172.900 M137.200 189.671 C 134.184 191.867,125.209 196.139,116.800 199.380 C 75.390 215.342,70.878 221.022,54.808 277.400 C 53.267 282.808,50.881 291.875,49.177 298.800 C 43.909 320.219,44.144 318.094,47.004 318.445 C 65.453 320.714,89.363 326.625,92.407 329.669 C 93.988 331.249,94.000 331.230,93.999 327.100 C 93.998 322.695,94.857 313.028,96.214 302.200 C 97.506 291.881,97.562 292.750,95.221 286.618 C 92.468 279.403,92.856 278.187,96.635 282.183 C 98.676 284.342,99.200 284.540,99.200 283.156 C 99.200 282.043,100.959 280.222,101.743 280.523 C 104.451 281.562,104.470 301.156,101.782 320.600 C 101.448 323.020,100.996 325.887,100.778 326.971 C 100.268 329.504,100.506 329.671,103.400 328.815 C 105.709 328.131,108.455 327.366,115.100 325.555 C 116.805 325.090,119.010 324.478,120.000 324.194 C 120.990 323.910,123.690 323.193,126.000 322.600 C 128.310 322.007,131.010 321.287,132.000 321.000 C 132.990 320.713,135.690 319.987,138.000 319.387 C 153.008 315.487,154.746 314.926,155.843 313.622 C 158.002 311.055,161.978 310.033,164.350 311.434 C 165.353 312.027,165.684 311.998,169.412 310.997 C 171.605 310.407,174.390 309.664,175.600 309.346 C 176.810 309.028,179.870 307.893,182.400 306.825 C 191.014 303.189,207.522 297.680,210.843 297.332 C 214.324 296.969,215.912 297.424,217.817 299.332 C 218.732 300.250,221.033 302.312,222.929 303.915 C 225.746 306.295,226.458 307.129,226.818 308.466 C 227.367 310.506,227.829 310.118,228.595 306.971 C 233.586 286.482,235.566 279.400,241.616 260.400 C 246.131 246.219,246.731 245.665,260.500 242.962 C 262.425 242.584,264.000 242.138,264.000 241.971 C 264.000 241.803,263.625 240.796,263.167 239.733 C 262.709 238.670,261.443 235.460,260.354 232.600 C 259.264 229.740,258.124 226.860,257.821 226.200 C 257.517 225.540,256.779 223.920,256.181 222.600 C 252.806 215.160,248.766 211.558,236.200 204.787 C 232.020 202.535,227.612 199.998,226.404 199.149 C 223.864 197.364,223.676 197.501,223.628 201.161 C 223.603 203.127,223.463 203.453,222.084 204.761 C 221.250 205.553,220.271 206.672,219.908 207.249 C 219.545 207.826,218.320 209.356,217.186 210.649 C 214.121 214.144,213.883 214.772,213.678 219.924 C 213.407 226.711,212.032 227.210,206.736 222.439 C 203.950 219.930,203.833 219.929,201.400 222.400 C 200.317 223.500,199.063 224.402,198.615 224.403 C 198.044 224.406,197.477 225.017,196.723 226.442 L 195.646 228.477 197.164 230.738 C 200.832 236.201,202.463 243.413,200.656 246.171 C 199.239 248.334,197.397 246.938,196.967 243.374 C 196.322 238.035,193.893 233.491,189.390 229.200 C 184.401 224.446,183.604 223.576,182.799 221.998 C 181.768 219.977,181.766 217.029,182.794 212.951 C 183.639 209.598,183.841 207.004,183.229 207.382 C 182.160 208.043,169.962 224.413,168.937 226.563 C 166.484 231.707,161.849 227.549,156.450 215.362 C 151.788 204.837,141.332 187.817,139.663 188.034 C 139.518 188.053,138.410 188.789,137.200 189.671 M212.800 188.552 C 212.800 188.856,213.250 190.300,213.800 191.762 C 214.985 194.911,215.078 197.030,214.080 198.174 C 213.684 198.628,212.753 200.530,212.012 202.400 C 210.002 207.470,208.649 210.028,206.421 212.972 L 204.413 215.625 205.507 216.039 C 206.108 216.267,207.004 216.832,207.498 217.295 C 208.575 218.303,208.459 218.447,209.313 215.051 C 209.986 212.372,211.650 209.561,213.611 207.793 C 219.609 202.382,220.862 193.844,216.167 190.375 C 215.007 189.519,213.944 188.634,213.805 188.409 C 213.439 187.816,212.800 187.907,212.800 188.552 M178.288 220.900 C 178.743 221.395,179.454 222.430,179.868 223.200 C 181.726 226.659,182.671 227.381,186.671 228.393 C 189.406 229.084,191.326 232.114,189.920 233.520 C 189.143 234.297,188.138 234.077,186.923 232.862 C 186.293 232.231,185.115 231.598,184.281 231.442 C 180.942 230.815,176.400 224.972,176.400 221.302 C 176.400 219.784,177.121 219.631,178.288 220.900 M106.892 223.900 C 109.360 226.704,114.421 248.880,115.588 262.000 C 116.433 271.503,116.138 274.000,114.169 274.000 C 112.524 274.000,112.320 273.125,109.557 254.200 C 109.126 251.247,108.343 246.453,107.368 240.800 C 105.337 229.018,104.686 224.474,104.936 223.822 C 105.252 222.998,106.129 223.033,106.892 223.900 M127.323 231.000 C 131.789 242.995,131.849 262.000,127.420 262.000 C 125.501 262.000,125.583 262.626,124.748 241.743 C 124.491 235.332,124.397 229.785,124.539 229.415 C 125.068 228.036,126.529 228.868,127.323 231.000 M175.200 340.202 C 173.330 341.181,171.440 342.411,171.000 342.936 C 169.825 344.337,168.450 345.100,166.200 345.598 C 164.515 345.971,155.466 350.498,138.600 359.405 C 117.418 370.591,96.179 381.378,91.200 383.479 L 87.400 385.082 87.200 388.682 C 87.090 390.662,86.791 392.533,86.536 392.841 C 86.140 393.319,90.039 393.411,113.336 393.479 C 151.983 393.591,199.341 394.831,210.800 396.031 C 223.823 397.394,241.152 398.070,244.736 397.353 C 245.929 397.114,245.953 397.069,245.423 396.044 C 243.070 391.495,241.381 364.365,242.803 353.976 C 243.363 349.890,243.898 350.148,236.499 350.942 C 217.744 352.956,211.341 351.920,193.600 344.005 C 189.173 342.029,179.722 338.395,179.057 338.412 C 178.806 338.418,177.070 339.224,175.200 340.202 M177.724 347.651 C 179.621 350.664,158.817 383.048,155.853 381.697 C 153.482 380.617,155.087 377.165,164.733 362.600 C 174.875 347.286,176.394 345.539,177.724 347.651 " stroke="none" fill="#fbcc74" fill-rule="evenodd"></path><path id="path4" d="M181.400 31.990 C 171.319 32.825,152.105 36.915,141.987 40.381 C 120.840 47.624,113.980 53.830,105.054 73.794 C 96.677 92.528,97.277 99.629,108.290 112.116 C 109.025 112.950,109.542 113.771,109.437 113.940 C 108.380 115.651,110.631 125.842,113.426 132.000 C 115.680 136.966,116.055 138.125,116.976 142.974 C 118.131 149.056,120.850 152.688,126.417 155.584 C 133.162 159.094,139.956 160.465,143.423 159.016 C 145.165 158.288,145.278 158.347,148.179 161.467 L 150.557 164.026 149.879 165.175 C 149.505 165.806,149.200 166.611,149.200 166.962 C 149.200 167.313,148.923 167.600,148.584 167.600 C 144.330 167.600,134.529 180.936,136.164 184.499 C 136.676 185.614,128.969 188.984,109.400 196.204 C 72.977 209.641,65.177 218.968,51.204 265.785 C 48.440 275.048,44.680 288.553,43.460 293.600 C 43.114 295.030,42.094 299.258,41.192 302.995 C 40.290 306.732,39.195 312.042,38.758 314.795 C 38.321 317.548,37.702 320.391,37.382 321.114 C 35.793 324.700,37.838 328.004,42.095 328.731 L 43.753 329.014 43.654 340.807 C 43.513 357.457,44.290 362.779,48.021 370.741 C 54.550 384.673,65.900 390.443,80.108 387.052 C 82.829 386.403,82.835 386.407,82.349 389.081 C 81.773 392.252,82.623 394.023,84.680 393.936 C 86.156 393.874,86.162 393.867,84.901 393.711 C 83.065 393.483,82.683 392.521,83.016 388.968 C 83.336 385.549,83.634 385.726,79.096 386.645 C 67.148 389.066,58.410 385.613,51.617 375.787 C 45.495 366.930,43.819 358.870,44.064 339.447 L 44.200 328.694 42.017 328.134 C 37.988 327.100,36.664 324.873,37.922 321.245 C 38.350 320.010,39.008 317.020,39.385 314.600 C 40.697 306.167,45.486 287.203,51.255 267.600 C 65.517 219.134,73.068 210.110,111.000 196.201 C 121.831 192.230,127.636 189.939,132.600 187.675 C 137.676 185.360,137.791 185.274,137.010 184.411 C 134.985 182.173,142.775 170.345,147.450 168.560 C 148.906 168.004,149.392 167.535,150.220 165.885 L 151.225 163.884 148.713 161.191 C 145.666 157.925,145.344 157.781,142.917 158.616 C 136.302 160.890,122.243 154.539,119.072 147.843 C 118.165 145.927,117.864 144.788,116.805 139.274 C 116.581 138.105,115.397 134.987,114.175 132.347 C 111.472 126.504,110.460 122.718,110.129 117.200 L 109.876 113.000 108.125 111.042 C 98.213 99.961,97.546 92.930,104.782 75.800 C 114.175 53.564,122.519 46.568,148.706 38.973 C 182.440 29.189,201.070 30.038,221.400 42.284 C 229.864 47.383,231.350 49.028,231.440 53.400 C 231.471 54.940,231.717 57.010,231.985 58.000 C 232.371 59.420,232.369 60.487,231.979 63.057 C 231.514 66.120,231.533 66.382,232.293 67.457 C 237.608 74.974,241.770 90.025,243.228 107.000 C 244.033 116.370,243.767 144.547,242.818 150.489 C 240.455 165.276,231.038 178.848,218.900 184.957 C 216.269 186.281,216.277 186.364,219.233 188.188 C 222.033 189.916,223.031 191.320,223.408 194.057 C 223.555 195.126,223.793 196.004,223.938 196.010 C 224.082 196.015,224.874 196.176,225.697 196.367 C 226.521 196.558,227.099 196.561,226.983 196.373 C 226.867 196.185,226.148 195.914,225.386 195.771 C 224.157 195.540,223.999 195.369,223.991 194.255 C 223.974 191.814,222.627 189.717,220.038 188.100 C 217.185 186.318,217.191 186.335,219.100 185.491 C 225.982 182.448,234.065 174.206,238.214 166.000 C 243.647 155.254,244.208 150.989,244.190 120.600 C 244.176 97.678,240.947 81.709,233.699 68.728 C 232.080 65.828,232.006 65.558,232.382 63.928 C 232.935 61.531,232.895 58.848,232.277 56.764 C 231.968 55.723,231.869 54.448,232.035 53.654 C 232.850 49.772,230.098 46.697,221.000 41.325 C 207.212 33.185,196.752 30.719,181.400 31.990 M176.200 38.011 C 162.690 39.898,138.591 46.409,131.400 50.114 C 120.696 55.630,111.837 68.270,105.546 87.000 C 103.988 91.639,105.212 99.379,108.221 103.911 C 110.107 106.751,110.437 106.495,111.244 101.573 C 113.720 86.467,114.989 86.458,114.599 101.550 C 114.202 116.914,114.910 120.557,120.303 130.879 C 122.128 134.373,122.823 136.189,123.196 138.439 C 124.230 144.689,125.518 146.957,129.152 148.935 C 135.015 152.126,142.907 153.404,141.358 150.911 C 141.032 150.387,140.176 150.133,138.097 149.944 C 127.685 149.000,120.702 136.740,124.158 125.474 C 125.080 122.468,125.223 122.439,130.519 124.134 C 143.753 128.370,166.400 132.860,166.400 131.247 C 166.400 130.792,166.309 130.765,161.000 129.589 C 156.228 128.532,145.012 125.725,143.600 125.234 C 143.050 125.043,139.037 123.850,134.682 122.583 C 126.534 120.212,125.676 119.716,127.804 118.604 C 128.242 118.375,129.320 117.714,130.200 117.136 C 131.080 116.557,132.461 115.876,133.268 115.621 C 135.261 114.994,135.452 114.655,135.751 111.200 C 137.324 93.042,146.211 70.300,155.698 60.159 C 164.435 50.819,183.611 44.739,204.600 44.653 C 212.843 44.620,214.307 44.776,219.563 46.255 C 221.813 46.888,219.680 45.493,214.688 43.068 C 203.111 37.441,191.345 35.896,176.200 38.011 M171.215 43.300 C 173.283 44.342,173.696 45.720,172.000 45.916 C 170.790 46.055,167.200 43.881,167.200 43.009 C 167.200 42.105,169.122 42.244,171.215 43.300 M157.029 47.460 C 159.807 48.390,161.272 49.493,161.122 50.543 C 160.901 52.093,158.920 51.865,156.090 49.965 C 152.248 47.385,152.755 46.029,157.029 47.460 M145.199 57.001 C 150.075 58.628,151.905 60.068,150.796 61.405 C 150.023 62.336,149.467 62.165,144.593 59.500 C 138.330 56.076,138.637 54.812,145.199 57.001 M137.429 68.882 C 142.107 70.747,143.796 72.165,142.946 73.514 C 141.949 75.097,140.210 74.662,135.907 71.752 C 128.148 66.507,128.728 65.413,137.429 68.882 M127.639 79.888 C 130.092 80.681,133.200 83.382,133.200 84.722 C 133.200 87.516,128.218 86.011,123.100 81.670 C 120.735 79.663,123.537 78.563,127.639 79.888 M135.600 123.389 C 139.890 124.653,145.740 126.298,148.600 127.044 C 151.460 127.791,154.790 128.663,156.000 128.982 C 157.210 129.302,158.716 129.670,159.347 129.801 C 161.477 130.243,160.098 130.459,157.739 130.053 C 156.452 129.832,154.050 129.435,152.400 129.171 C 141.751 127.468,125.045 122.421,125.834 121.145 C 126.163 120.613,126.247 120.633,135.600 123.389 M210.600 125.830 C 207.388 126.380,203.879 127.228,195.047 129.587 C 186.595 131.843,176.757 132.692,171.291 131.635 C 169.080 131.207,169.043 131.289,169.151 136.374 C 169.346 145.522,165.744 154.009,157.877 162.945 C 155.084 166.116,155.071 166.011,158.636 168.947 C 169.467 177.868,176.980 180.238,201.246 182.389 C 213.050 183.436,223.335 178.245,231.698 167.021 C 235.690 161.662,239.963 151.803,240.464 146.796 L 240.600 145.431 237.600 145.373 C 233.163 145.288,227.726 142.878,226.407 140.413 C 225.802 139.283,226.542 139.343,229.413 140.657 C 231.795 141.748,239.925 143.674,240.555 143.297 C 241.542 142.706,240.034 132.487,238.727 130.912 C 235.420 126.927,220.221 124.181,210.600 125.830 M227.600 126.747 C 231.712 127.778,236.229 129.597,237.658 130.800 C 239.835 132.631,241.572 142.826,239.700 142.784 C 237.688 142.739,231.813 141.177,229.302 140.019 C 225.164 138.112,223.884 138.876,226.717 141.562 C 229.617 144.312,235.504 146.407,238.665 145.814 C 240.239 145.519,240.329 145.966,239.423 149.600 C 235.554 165.125,223.686 178.359,210.891 181.417 C 203.377 183.213,179.466 180.138,170.657 176.242 C 166.578 174.438,156.000 166.891,156.000 165.785 C 156.000 165.552,156.743 164.651,157.651 163.781 C 164.913 156.829,169.600 146.094,169.600 136.417 L 169.600 131.942 171.900 132.251 C 175.524 132.737,183.463 132.521,187.355 131.830 C 191.204 131.147,191.064 131.181,199.600 128.862 C 212.111 125.464,220.075 124.862,227.600 126.747 M194.200 142.633 C 190.244 144.580,185.959 145.600,181.737 145.600 C 178.129 145.600,178.038 147.114,181.600 147.861 C 189.492 149.517,200.800 146.329,200.800 142.449 C 200.800 140.302,198.824 140.357,194.200 142.633 M200.015 141.818 C 202.270 144.535,191.634 148.615,184.339 147.831 C 180.394 147.407,179.490 146.561,182.611 146.215 C 187.570 145.664,190.908 144.770,194.508 143.028 C 198.581 141.058,199.260 140.908,200.015 141.818 M235.323 199.998 C 236.160 200.462,238.230 201.394,239.923 202.068 C 254.538 207.888,259.479 213.232,265.037 229.227 C 267.231 235.541,269.729 241.121,270.492 241.414 C 270.789 241.528,273.815 241.177,277.216 240.634 C 288.044 238.905,301.253 237.113,310.000 236.187 C 331.933 233.864,362.071 231.981,363.664 232.834 C 364.890 233.490,364.849 234.605,363.230 244.461 C 362.351 249.818,361.166 257.170,360.597 260.800 C 358.299 275.466,355.416 293.004,353.583 303.470 C 353.152 305.928,352.164 311.688,351.388 316.270 C 347.715 337.943,347.402 338.197,321.000 340.981 C 288.912 344.365,276.408 345.923,276.378 346.541 C 276.366 346.794,276.372 350.690,276.391 355.200 C 276.429 364.159,275.917 370.741,274.953 373.705 C 272.749 380.475,258.995 390.400,251.817 390.400 C 249.353 390.400,249.210 390.586,249.477 393.440 C 249.759 396.459,248.997 397.837,247.284 397.407 C 246.677 397.254,246.426 397.318,246.590 397.584 C 247.905 399.712,250.190 397.242,250.110 393.778 L 250.055 391.356 253.491 390.707 C 259.172 389.635,265.593 385.863,271.301 380.246 C 275.988 375.633,276.853 371.928,276.883 356.346 L 276.902 346.482 279.551 346.226 C 281.008 346.085,283.460 345.807,285.000 345.608 C 286.540 345.410,290.320 344.966,293.400 344.621 C 296.480 344.277,302.150 343.634,306.000 343.193 C 309.850 342.752,316.420 342.036,320.600 341.600 C 346.881 338.865,348.355 337.820,351.367 319.800 C 351.918 316.500,352.828 311.190,353.389 308.000 C 354.560 301.331,358.686 276.449,360.187 267.000 C 360.746 263.480,362.102 255.057,363.202 248.283 C 366.188 229.879,367.423 231.683,352.286 232.341 C 327.245 233.428,296.664 236.647,274.000 240.581 C 270.011 241.274,270.081 241.357,266.621 231.800 C 262.640 220.806,261.343 218.006,258.348 213.944 C 254.276 208.422,249.593 205.321,239.000 201.135 C 233.810 199.084,233.504 198.989,235.323 199.998 M343.000 237.020 C 324.227 238.169,303.398 240.303,287.000 242.756 C 276.936 244.262,270.982 245.208,269.200 245.584 C 268.210 245.793,265.780 246.253,263.800 246.607 C 248.708 249.306,249.863 248.297,245.267 262.800 C 241.547 274.540,236.599 292.350,233.265 306.000 C 231.055 315.051,230.419 317.757,228.002 328.400 C 227.527 330.490,226.414 335.080,225.529 338.600 C 223.211 347.822,222.732 347.077,230.200 345.852 C 232.400 345.492,236.540 344.928,239.400 344.601 C 242.260 344.273,248.470 343.565,253.200 343.027 C 257.930 342.489,262.520 341.951,263.400 341.831 C 265.576 341.535,273.383 340.649,288.400 338.995 C 295.330 338.232,304.060 337.254,307.800 336.821 C 315.518 335.929,327.552 334.601,333.217 334.017 C 339.461 333.373,341.885 332.122,343.690 328.611 C 345.279 325.521,345.247 325.685,352.633 282.400 C 354.165 273.416,354.223 273.083,355.568 265.531 C 356.416 260.770,356.540 259.727,356.219 260.048 C 356.119 260.148,355.575 262.923,355.010 266.215 C 354.445 269.507,353.811 273.010,353.602 274.000 C 353.392 274.990,352.946 277.465,352.610 279.500 C 350.567 291.887,348.791 302.263,346.774 313.600 C 346.324 316.130,345.779 319.252,345.563 320.537 C 343.950 330.134,340.713 333.600,333.359 333.600 C 332.520 333.600,329.576 333.868,326.817 334.195 C 321.846 334.784,319.849 335.010,309.000 336.206 C 305.920 336.546,301.960 337.017,300.200 337.253 C 298.440 337.489,295.380 337.837,293.400 338.026 C 288.508 338.494,272.707 340.266,259.600 341.818 C 250.273 342.922,248.208 343.162,242.400 343.813 C 236.006 344.529,226.731 345.852,225.255 346.257 C 224.191 346.549,224.231 345.093,225.392 341.200 C 225.687 340.210,226.401 337.330,226.978 334.800 C 227.555 332.270,228.199 329.480,228.408 328.600 C 228.836 326.801,230.217 320.735,230.822 318.000 C 232.111 312.172,237.681 290.035,238.371 288.000 C 238.557 287.450,238.996 285.920,239.345 284.600 C 240.877 278.816,246.923 258.687,248.296 254.800 C 249.752 250.677,251.683 249.284,257.400 248.234 C 259.380 247.871,262.350 247.319,264.000 247.009 C 266.779 246.486,271.461 245.675,276.800 244.791 C 279.172 244.398,284.499 243.594,291.200 242.617 C 315.740 239.039,360.000 235.652,360.000 237.352 C 360.000 238.038,358.552 246.574,357.380 252.800 C 357.028 254.670,356.667 257.010,356.578 258.000 C 356.393 260.066,357.424 255.010,359.322 244.555 C 360.045 240.570,360.568 237.105,360.485 236.855 C 360.291 236.274,354.247 236.331,343.000 237.020 M303.900 274.832 C 303.398 275.125,303.200 275.747,303.200 277.036 C 303.200 279.909,301.458 282.590,298.280 284.608 C 296.837 285.523,295.863 287.417,296.136 288.778 C 296.309 289.644,296.050 290.126,294.756 291.344 C 291.173 294.719,292.001 298.286,296.979 300.923 C 298.993 301.990,308.822 302.200,312.104 301.247 C 319.241 299.174,322.019 292.320,316.931 289.339 C 315.823 288.689,314.965 287.813,314.613 286.969 C 314.305 286.233,313.325 285.129,312.434 284.515 C 311.318 283.747,310.687 282.945,310.402 281.937 C 309.727 279.545,305.925 274.366,304.878 274.412 C 304.725 274.419,304.285 274.608,303.900 274.832 M307.697 277.923 C 308.744 279.311,309.798 281.231,310.039 282.191 C 310.380 283.542,310.743 284.045,311.653 284.422 C 313.032 284.993,314.400 286.598,314.400 287.646 C 314.400 288.101,314.998 288.689,315.962 289.181 C 321.357 291.933,319.804 297.708,312.933 300.448 C 309.422 301.848,299.914 301.851,297.098 300.453 C 292.340 298.093,291.604 294.441,295.289 291.481 C 296.702 290.345,296.831 290.090,296.603 288.878 C 296.280 287.152,296.970 286.091,299.756 284.033 C 302.217 282.215,303.600 279.806,303.600 277.340 C 303.600 274.267,305.100 274.481,307.697 277.923 M304.307 283.211 C 303.706 284.080,302.311 285.440,301.207 286.233 C 298.951 287.854,298.752 288.488,300.200 289.437 C 301.647 290.385,301.484 291.200,299.847 291.200 C 298.399 291.200,295.600 293.722,295.600 295.027 C 295.600 300.643,313.281 300.445,316.202 294.796 C 317.494 292.297,314.771 290.840,312.513 292.823 C 309.905 295.113,308.100 293.558,310.368 290.975 C 312.319 288.754,311.771 286.441,309.433 287.027 C 307.998 287.388,307.337 286.707,307.011 284.536 C 306.486 281.035,305.982 280.788,304.307 283.211 M306.599 284.639 C 307.227 287.430,307.477 287.725,309.004 287.477 C 311.443 287.081,311.909 288.765,309.970 290.973 C 307.422 293.875,309.753 295.696,312.841 293.215 C 315.718 290.903,317.387 293.499,314.598 295.948 C 310.118 299.882,296.000 299.367,296.000 295.269 C 296.000 293.891,298.143 291.874,299.741 291.749 C 302.355 291.543,302.831 290.436,300.803 289.281 C 299.185 288.361,299.285 288.028,301.663 286.414 C 302.786 285.652,304.087 284.439,304.553 283.719 C 305.649 282.026,306.051 282.207,306.599 284.639 M218.722 329.411 C 218.601 329.532,218.589 330.405,218.695 331.349 C 219.326 336.947,214.820 337.824,206.400 333.741 C 199.879 330.579,198.545 330.502,193.254 332.975 C 191.044 334.008,188.372 335.066,187.317 335.327 C 185.115 335.870,184.959 336.442,186.870 336.961 C 189.475 337.669,195.075 339.562,200.000 341.402 C 208.953 344.745,212.704 345.779,217.999 346.360 C 222.632 346.869,222.136 347.672,223.411 337.600 C 224.267 330.837,224.295 331.017,222.300 330.287 C 219.783 329.366,218.967 329.166,218.722 329.411 M221.887 330.654 C 222.829 331.014,223.598 331.509,223.596 331.754 C 223.592 332.324,222.435 341.627,222.074 344.000 C 221.550 347.442,214.522 346.430,199.429 340.738 C 195.893 339.404,191.685 337.918,190.077 337.435 C 186.565 336.379,186.490 336.115,189.417 335.127 C 190.658 334.709,192.691 333.789,193.936 333.083 C 197.686 330.958,200.212 331.179,206.372 334.170 C 214.605 338.167,219.200 337.388,219.200 331.994 C 219.200 329.748,219.336 329.680,221.887 330.654 " stroke="none" fill="#98cacb" fill-rule="evenodd"></path></g></svg>